<?xml version="1.0" encoding="utf-8"?>
<!-- Generator: Adobe Illustrator 22.0.1, SVG Export Plug-In . SVG Version: 6.00 Build 0)  -->
<svg version="1.1" id="Layer_1" xmlns="http://www.w3.org/2000/svg" xmlns:xlink="http://www.w3.org/1999/xlink" x="0px" y="0px"
	 viewBox="0 0 500 500" style="enable-background:new 0 0 500 500;" xml:space="preserve">
<style type="text/css">
	.st0{fill:#232527;}
</style>
<g>
	<path class="st0" d="M295.9,316.3c0,3.9-1.4,7.3-4.3,10.2c-2.9,2.9-6.3,4.3-10.2,4.3H209c-3.9,0-7.3-1.4-10.2-4.3
		s-4.3-6.3-4.3-10.2v-36.2H42.4v108.7c0,10,3.5,18.5,10.6,25.6S68.6,425,78.6,425h333.2c10,0,18.5-3.5,25.6-10.6
		s10.6-15.6,10.6-25.6V280.1H295.9V316.3z"/>
	<rect x="216.3" y="280.1" class="st0" width="57.9" height="29"/>
	<path class="st0" d="M437.4,145.9c-7.1-7.1-15.6-10.6-25.6-10.6h-79.7V99c0-6-2.1-11.2-6.3-15.4c-4.2-4.2-9.4-6.3-15.4-6.3H180
		c-6,0-11.2,2.1-15.4,6.3c-4.2,4.2-6.3,9.4-6.3,15.4v36.2H78.6c-10,0-18.5,3.5-25.6,10.6s-10.6,15.6-10.6,25.6v86.9h405.7v-86.9
		C448.1,161.5,444.5,153,437.4,145.9L437.4,145.9z M303.2,135.2H187.3v-29h115.9V135.2z"/>
</g>
</svg>
