<?xml version="1.0" encoding="utf-8"?>
<!-- Generator: Adobe Illustrator 22.0.1, SVG Export Plug-In . SVG Version: 6.00 Build 0)  -->
<svg version="1.1" id="Layer_1" xmlns="http://www.w3.org/2000/svg" xmlns:xlink="http://www.w3.org/1999/xlink" x="0px" y="0px"
	 viewBox="0 0 500 500" style="enable-background:new 0 0 500 500;" xml:space="preserve">
<style type="text/css">
	.st0{fill:#232527;}
</style>
<g>
	<path class="st0" d="M240.9,291.6h-10c-5.2,0-9.5-4.2-9.5-9.5c0-2,0.8-3.8,2.2-5.1c5.9-5.7,10.8-13.3,14.3-21.6
		c0.8,0.6,1.5,0.9,2.4,0.9c5.6,0,12.3-12.5,12.3-21s-0.8-15.4-6.5-15.4c-0.6,0-1.3,0.1-2.1,0.3c-0.4-23.1-6.2-51.9-41.4-51.9
		c-36.7,0-41,28.7-41.4,51.7c-0.6-0.1-1.1-0.2-1.5-0.2c-5.7,0-6.4,6.9-6.4,15.4s6.6,21,12.3,21c0.7,0,1.4-0.2,2-0.6
		c3.5,8.1,8.4,15.6,14.2,21.2c1.4,1.3,2.2,3.2,2.2,5.1c0,5.2-4.2,9.5-9.4,9.5h-10c-21.5,0-39,17.4-39,38.9v10.8
		c0,6.8,5.5,12.3,12.3,12.3h129.9c6.8,0,12.3-5.5,12.3-12.3v-10.8C279.8,308.9,262.4,291.6,240.9,291.6L240.9,291.6z"/>
	<path class="st0" d="M357.5,184.7h-109c3.2,7,5.4,15.5,6.3,26.1c2.3,1.5,4.1,3.8,5.5,6.6h97.2c5,0,9.1-4.1,9.1-9.1v-14.5
		C366.6,188.8,362.5,184.7,357.5,184.7L357.5,184.7z"/>
	<path class="st0" d="M357.5,244.2h-94.9c-2.6,9.7-9,19.9-17.8,22.6c-0.3,0.5-0.5,0.9-0.8,1.4v8.7h113.5c5,0,9.1-4,9.1-9.1v-14.5
		C366.6,248.3,362.5,244.2,357.5,244.2L357.5,244.2z"/>
	<path class="st0" d="M357.5,303.8h-74.1c4.9,7.8,7.8,16.9,7.8,26.7v5.9h66.3c5,0,9.1-4,9.1-9.1v-14.5
		C366.6,307.9,362.5,303.8,357.5,303.8L357.5,303.8z"/>
	<path class="st0" d="M396.7,93.9H95.3c-31,0-56,25-56,56V372c0,31,25,56,56,56h301.4c30.9,0,55.9-25,55.9-56V149.8
		C452.6,118.9,427.6,93.9,396.7,93.9L396.7,93.9z M426.2,372c0,16.3-13.3,29.6-29.5,29.6H95.3c-16.3,0-29.6-13.3-29.6-29.6V149.8
		c0-16.3,13.3-29.6,29.6-29.6h301.4c16.2,0,29.5,13.3,29.5,29.6V372z"/>
</g>
</svg>
