<?xml version="1.0" encoding="utf-8"?>
<!-- Generator: Adobe Illustrator 22.0.1, SVG Export Plug-In . SVG Version: 6.00 Build 0)  -->
<svg version="1.1" id="Layer_1" xmlns="http://www.w3.org/2000/svg" xmlns:xlink="http://www.w3.org/1999/xlink" x="0px" y="0px"
	 viewBox="0 0 500 500" style="enable-background:new 0 0 500 500;" xml:space="preserve">
<style type="text/css">
	.st0{fill:#232527;}
	.st1{clip-path:url(#SVGID_2_);fill:#232527;}
	.st2{clip-path:url(#SVGID_4_);fill:#232527;}
	.st3{clip-path:url(#SVGID_6_);fill:#232527;}
	.st4{clip-path:url(#SVGID_8_);fill:#232527;}
</style>
<g>
	<path class="st0" d="M214.5,163.7h203.7c14.1,0,25.5-11.4,25.5-25.5s-11.4-25.5-25.5-25.5H214.5c-14.1,0-25.5,11.4-25.5,25.5
		S200.4,163.7,214.5,163.7L214.5,163.7z"/>
	<path class="st0" d="M418.2,231.6H214.5c-14.1,0-25.5,11.4-25.5,25.5s11.4,25.5,25.5,25.5h203.7c14.1,0,25.5-11.4,25.5-25.5
		S432.2,231.6,418.2,231.6L418.2,231.6z"/>
	<g>
		<g>
			<defs>
				<rect id="SVGID_1_" x="48.6" y="92.6" width="396.7" height="330.5"/>
			</defs>
			<clipPath id="SVGID_2_">
				<use xlink:href="#SVGID_1_"  style="overflow:visible;"/>
			</clipPath>
			<path class="st1" d="M418.2,350.4H214.5c-14.1,0-25.5,11.4-25.5,25.5s11.4,25.5,25.5,25.5h203.7c14.1,0,25.5-11.4,25.5-25.5
				S432.2,350.4,418.2,350.4L418.2,350.4z"/>
		</g>
		<g>
			<defs>
				<rect id="SVGID_3_" x="48.6" y="92.6" width="396.7" height="330.5"/>
			</defs>
			<clipPath id="SVGID_4_">
				<use xlink:href="#SVGID_3_"  style="overflow:visible;"/>
			</clipPath>
			<path class="st2" d="M131.4,236.8l-17-2.5l-7.6-15.4c-2.1-4.3-6.6-7.1-11.4-7.1s-9.3,2.8-11.4,7.1l-7.6,15.4l-17,2.5
				c-4.8,0.7-8.8,4.1-10.3,8.7c-1.5,4.6-0.2,9.7,3.2,13l12.3,12l-2.9,16.9c-0.8,4.8,1.1,9.6,5.1,12.5c2.2,1.6,4.8,2.4,7.5,2.4
				c2,0,4.1-0.5,5.9-1.5l15.2-8l15.2,8c1.9,1,3.9,1.5,5.9,1.5l0,0c7,0,12.7-5.7,12.7-12.7c0-1.1-0.1-2.1-0.4-3.1l-2.7-15.9l12.3-12
				c3.5-3.4,4.7-8.4,3.2-13C140.2,240.9,136.2,237.5,131.4,236.8L131.4,236.8z"/>
		</g>
		<g>
			<defs>
				<rect id="SVGID_5_" x="48.6" y="92.6" width="396.7" height="330.5"/>
			</defs>
			<clipPath id="SVGID_6_">
				<use xlink:href="#SVGID_5_"  style="overflow:visible;"/>
			</clipPath>
			<path class="st3" d="M131.4,118l-17-2.5l-7.6-15.4c-2.1-4.3-6.6-7.1-11.4-7.1s-9.3,2.8-11.4,7.1l-7.6,15.4l-17,2.5
				c-4.8,0.7-8.8,4.1-10.3,8.7c-1.5,4.6-0.2,9.7,3.2,13l12.3,12l-2.9,16.9c-0.8,4.8,1.1,9.6,5.1,12.5c2.2,1.6,4.8,2.4,7.5,2.4
				c2,0,4.1-0.5,5.9-1.5l15.2-8l15.2,8c1.9,1,3.9,1.5,5.9,1.5l0,0c7,0,12.7-5.7,12.7-12.7c0-1.1-0.1-2.1-0.4-3.1l-2.7-15.9l12.3-12
				c3.5-3.4,4.7-8.4,3.2-13C140.2,122,136.2,118.7,131.4,118L131.4,118z"/>
		</g>
		<g>
			<defs>
				<rect id="SVGID_7_" x="48.6" y="92.6" width="396.7" height="330.5"/>
			</defs>
			<clipPath id="SVGID_8_">
				<use xlink:href="#SVGID_7_"  style="overflow:visible;"/>
			</clipPath>
			<path class="st4" d="M131.4,355.6l-17-2.5l-7.6-15.4c-2.1-4.3-6.6-7.1-11.4-7.1s-9.3,2.8-11.4,7.1l-7.6,15.4l-17,2.5
				c-4.8,0.7-8.8,4.1-10.3,8.7s-0.2,9.7,3.2,13l12.3,12l-2.9,16.9c-0.8,4.8,1.1,9.6,5.1,12.5c2.2,1.6,4.8,2.4,7.5,2.4
				c2,0,4.1-0.5,5.9-1.5l15.2-8l15.2,8c1.9,1,3.9,1.5,5.9,1.5l0,0c7,0,12.7-5.7,12.7-12.7c0-1.1-0.1-2.1-0.4-3.1l-2.7-15.9l12.3-12
				c3.5-3.4,4.7-8.4,3.2-13C140.2,359.7,136.2,356.3,131.4,355.6L131.4,355.6z"/>
		</g>
	</g>
</g>
</svg>
