<?xml version="1.0" encoding="utf-8"?>
<!-- Generator: Adobe Illustrator 22.0.1, SVG Export Plug-In . SVG Version: 6.00 Build 0)  -->
<svg version="1.1" id="Layer_1" xmlns="http://www.w3.org/2000/svg" xmlns:xlink="http://www.w3.org/1999/xlink" x="0px" y="0px"
	 viewBox="0 0 500 500" style="enable-background:new 0 0 500 500;" xml:space="preserve">
<style type="text/css">
	.st0{fill:#232527;}
</style>
<g>
	<path class="st0" d="M77.8,46.5c66.2,0,132.4,0,198.5,0c0.9,1.1,1.8,2.3,2.8,3.3c23.9,24,47.9,47.9,71.9,71.8
		c1.9,1.9,2.8,3.8,2.8,6.6c-0.1,39.9-0.1,79.7-0.1,119.6c0,1.4,0,2.8,0,4.1c-39.2,7-68.9,27-87.7,61.7c-18.8,34.8-18.6,70.6-3,106.8
		c-1.3,0.1-2.2,0.3-3.1,0.3c-59,0-118,0.1-177-0.1c-5.4,0-11.2-1.3-16.1-3.6c-13.5-6.4-19.3-18-19.3-32.6c0-46.4,0-92.7,0-139.1
		c0-54.1,0-108.1,0-162.2c0-9.2,2.3-17.5,8.4-24.7C61.8,51.6,69.4,48.3,77.8,46.5z M251.6,199.9c-51.2,0-102,0-152.7,0
		c0,11.3,0,22.3,0,33.5c51,0,101.8,0,152.7,0C251.6,222.1,251.6,211.1,251.6,199.9z M334.7,148.4c-27.4-27.5-55.3-55.3-82.7-82.8
		c0,26.9,0,54.7,0,82.8C280,148.4,307.8,148.4,334.7,148.4z M98.9,267.8c0,11.5,0,22.6,0,33.6c34,0,67.7,0,101.5,0
		c0-11.3,0-22.4,0-33.6C166.5,267.8,132.9,267.8,98.9,267.8z"/>
	<path class="st0" d="M315.9,398.8c-8.7-8.7-16.5-16.5-24.2-24.2c26.2-26.2,52.7-52.8,79-79.1c26.3,26.3,52.8,52.8,79.3,79.3
		c-7.6,7.5-15.5,15.3-23.7,23.5c-12.3-12.5-24.8-25.2-37.4-37.9c-0.3,0.2-0.6,0.3-0.9,0.5c0,31.1,0,62.2,0,93.6
		c-11.5,0-22.6,0-34.1,0c0-31.1,0-62.3,0-93.8C341,373.7,328.3,386.4,315.9,398.8z"/>
</g>
</svg>
