<?xml version="1.0" encoding="utf-8"?>
<!-- Generator: Adobe Illustrator 22.0.1, SVG Export Plug-In . SVG Version: 6.00 Build 0)  -->
<svg version="1.1" id="Layer_1" xmlns="http://www.w3.org/2000/svg" xmlns:xlink="http://www.w3.org/1999/xlink" x="0px" y="0px"
	 viewBox="0 0 500 500" style="enable-background:new 0 0 500 500;" xml:space="preserve">
<style type="text/css">
	.st0{fill:#232527;}
</style>
<path class="st0" d="M245.5,283.4c24.9,0,45.2-20.3,45.2-45.2S270.4,193,245.5,193s-45.2,20.3-45.2,45.2S220.6,283.4,245.5,283.4z"
	/>
<path class="st0" d="M62,283.3l30,4.9c3.8,15,9.7,29.2,17.6,42.5l-17.3,24.2c-3.2,4.5-2.7,10.7,1.2,14.6l32,32
	c3.9,3.9,10.1,4.4,14.6,1.2l24.2-17.3c13.3,8,27.5,13.9,42.5,17.6l4.9,30c0.9,5.5,5.6,9.5,11.2,9.5h45.2c5.5,0,10.2-4,11.2-9.5
	l4.9-30c15-3.8,29.2-9.7,42.5-17.6l24.2,17.3c4.5,3.2,10.6,2.7,14.6-1.2l32-32c3.9-3.9,4.4-10.1,1.2-14.6l-17.3-24.2
	c8-13.3,13.9-27.5,17.6-42.5l30-4.9c5.5-0.9,9.5-5.6,9.5-11.2v-45.2c0-5.5-4-10.2-9.5-11.2l-30-4.9c-3.8-15-9.7-29.2-17.6-42.5
	l17.3-24.2c3.2-4.5,2.7-10.7-1.2-14.6l-32-32c-3.9-3.9-10.1-4.4-14.6-1.2l-24.2,17.3c-13.3-8-27.5-13.9-42.5-17.6l-4.9-30
	c-0.9-5.5-5.6-9.5-11.2-9.5h-45.2c-5.5,0-10.2,4-11.2,9.5l-4.9,30c-15,3.8-29.2,9.7-42.5,17.6l-24.2-17.3
	c-4.5-3.2-10.7-2.7-14.6,1.2l-32,32c-3.9,3.9-4.4,10.1-1.2,14.6l17.3,24.2c-8,13.3-13.9,27.5-17.6,42.5l-30,4.9
	c-5.5,0.9-9.5,5.6-9.5,11.2v45.2C52.5,277.6,56.5,282.4,62,283.3z M245.5,125.1c68.6,0,124.4,55.8,124.4,124.4
	s-55.8,124.4-124.4,124.4s-124.4-55.8-124.4-124.4S176.9,125.1,245.5,125.1z"/>
<path class="st0" d="M320.8,317.3c-4.4-14.1-12.3-26.7-23.1-36.3c-12.5,15.2-31.1,25.1-52.2,25.1s-39.8-9.9-52.2-25.1
	c-10.8,9.6-18.7,22.2-23.1,36.3c18.6,20.7,45.4,34,75.3,34S302.2,338,320.8,317.3z"/>
</svg>
