<?xml version="1.0" encoding="utf-8"?>
<!-- Generator: Adobe Illustrator 22.0.1, SVG Export Plug-In . SVG Version: 6.00 Build 0)  -->
<svg version="1.1" id="Layer_1" xmlns="http://www.w3.org/2000/svg" xmlns:xlink="http://www.w3.org/1999/xlink" x="0px" y="0px"
	 viewBox="0 0 500 500" style="enable-background:new 0 0 500 500;" xml:space="preserve">
<style type="text/css">
	.st0{fill:#232527;}
</style>
<g>
	<path class="st0" d="M173.9,217.5c3.9,25.3,23.4,57.5,55.5,68.8c13.2,4.6,27.6,4.7,40.8-0.1c31.6-11.4,51.7-43.5,55.7-68.7
		c4.2-0.4,9.8-6.3,15.8-27.6c8.2-29.1-0.5-33.4-8-32.7c1.4-4,2.5-8,3.2-11.9c12.6-75.4-24.6-78-24.6-78s-6.2-11.8-22.4-20.8
		c-10.9-6.5-26-11.4-45.9-9.7c-6.5,0.3-12.6,1.6-18.3,3.4c-7.3,2.5-14.1,6.1-20.2,10.3c-7.4,4.7-14.5,10.5-20.7,17.2
		c-9.8,10.1-18.6,23.1-22.4,39.3c-3.2,12.1-2.5,24.8,0.2,38.4c0.7,4,1.8,8,3.2,11.9c-7.4-0.7-16.2,3.6-8,32.7
		C164.1,211.3,169.6,217.2,173.9,217.5L173.9,217.5z"/>
	<path class="st0" d="M395.8,316.5c-45.2-11.5-81.9-37.3-81.9-37.3l-28.7,90.6l-5.4,17.1l-0.1-0.3l-4.7,14.5l-15.1-42.9
		c37.1-51.8-7.5-51.3-10-51.2c-2.5-0.1-47.1-0.6-10,51.2l-15.1,42.9l-4.7-14.5l-0.1,0.3l-5.4-17.1l-28.7-90.6
		c0,0-36.7,25.8-81.9,37.3c-33.7,8.6-35.3,47.5-34,66.7c0,0,1.9,26.1,3.9,37.6c0,0,65.8,42.7,176,42.8c110.2,0,176-42.8,176-42.8
		c1.9-11.5,3.9-37.6,3.9-37.6C431.1,364,429.5,325.1,395.8,316.5L395.8,316.5z"/>
</g>
</svg>
