<?xml version="1.0" encoding="utf-8"?>
<!-- Generator: Adobe Illustrator 21.0.2, SVG Export Plug-In . SVG Version: 6.00 Build 0)  -->
<svg version="1.1" id="Layer_1" xmlns="http://www.w3.org/2000/svg" xmlns:xlink="http://www.w3.org/1999/xlink" x="0px" y="0px"
	 viewBox="0 0 180 50" style="enable-background:new 0 0 180 50;" xml:space="preserve">
<style type="text/css">
	.st0{fill:#1CADE4;}
	.st1{clip-path:url(#SVGID_3_);}
	.st2{fill:#FFFFFF;}
</style>
<g>
	<g>
		<g>
			<path id="SVGID_1_" class="st0" d="M7.4,39.3c0.7,0.3,1.3,0.5,1.7,0.7c0.4,0.2,0.8,0.4,1,0.7c0.3,0.3,0.4,0.6,0.4,1
				c0,0.5-0.1,0.8-0.4,1.2c-0.3,0.3-0.7,0.6-1.2,0.7c-0.5,0.2-1.1,0.3-1.8,0.3c-0.2,0-0.4,0-0.7,0c-0.3,0-0.6-0.1-1.1-0.1
				c-0.4-0.1-0.9-0.2-1.4-0.4v-1.8c0.5,0.2,0.9,0.4,1.4,0.5s0.9,0.2,1.4,0.2s0.8-0.1,0.9-0.2c0.1-0.1,0.2-0.2,0.2-0.3
				c0-0.2-0.1-0.3-0.4-0.5c-0.2-0.1-0.6-0.3-1-0.4c-0.5-0.2-1-0.3-1.3-0.5c-0.4-0.2-0.7-0.4-0.9-0.7c-0.2-0.3-0.4-0.6-0.4-1
				s0.1-0.7,0.4-1s0.6-0.5,1.1-0.7s1.1-0.3,1.8-0.3c0.5,0,1,0,1.4,0.1s0.8,0.2,1.1,0.3s0.5,0.2,0.6,0.2V39c-0.4-0.2-0.8-0.4-1.3-0.6
				c-0.4-0.2-1-0.3-1.5-0.3c-0.3,0-0.6,0.1-0.7,0.1c-0.1,0.1-0.2,0.2-0.2,0.4c0,0.1,0.1,0.3,0.2,0.4C6.7,39,7,39.2,7.4,39.3
				L7.4,39.3z M21.6,42.1c-0.4,0.6-1,1-1.8,1.3s-1.7,0.5-2.8,0.5c-1.1,0-2.1-0.2-2.9-0.5c-0.8-0.3-1.4-0.8-1.8-1.4
				c-0.4-0.6-0.6-1.2-0.6-1.8s0.2-1.2,0.6-1.8c0.4-0.5,1-1,1.8-1.4c0.8-0.3,1.7-0.5,2.9-0.5c0.8,0,1.6,0.1,2.3,0.3s1.2,0.5,1.6,0.8
				s0.7,0.7,1,1.2c0.2,0.4,0.3,0.9,0.3,1.4C22.2,40.9,22,41.5,21.6,42.1L21.6,42.1z M19.2,39.5c-0.1-0.2-0.3-0.4-0.4-0.6
				c-0.2-0.2-0.4-0.3-0.7-0.4c-0.3-0.1-0.6-0.1-1-0.1c-0.7,0-1.3,0.2-1.7,0.5s-0.6,0.8-0.6,1.3s0.2,1,0.6,1.3c0.4,0.3,1,0.5,1.7,0.5
				c0.5,0,1-0.1,1.3-0.2c0.4-0.1,0.6-0.4,0.8-0.7c0.2-0.3,0.3-0.6,0.3-1C19.4,40,19.3,39.7,19.2,39.5L19.2,39.5z M30.5,39.5v1.4
				h-3.8v2.9h-2.8v-7.2h6.6V38h-3.8v1.4L30.5,39.5L30.5,39.5z M37.8,38.4v5.4H35v-5.4h-3.4v-1.7h9.5v1.7H37.8L37.8,38.4z M53.7,43.9
				h-1.6l-2.4-4.2l-2.4,4.2h-1.6l-3.9-7.3h2.9l1.9,4l2.2-4h2l2.1,4l2-4h2.8L53.7,43.9L53.7,43.9z M65.4,43.8l-0.7-1.4h-4l-0.8,1.4
				h-2.8l4.1-7.2h3.1l4.1,7.2H65.4L65.4,43.8z M62.7,38.5l-1.4,2.6H64L62.7,38.5L62.7,38.5z M76.7,41.1c0.2,0.2,0.4,0.5,0.8,1.1
				l0.9,1.6h-3l-0.7-1.3c-0.3-0.5-0.5-0.8-0.7-1s-0.4-0.3-0.6-0.4C73.2,41,73,41,72.6,41h-0.3v2.8h-2.8v-7.2h4.7
				c0.8,0,1.4,0.1,1.9,0.4c0.5,0.2,0.8,0.5,1,0.9c0.2,0.3,0.3,0.7,0.3,1c0,0.4-0.1,0.7-0.3,0.9c-0.2,0.3-0.4,0.4-0.6,0.5
				s-0.4,0.2-0.7,0.3C76.3,40.8,76.5,41,76.7,41.1L76.7,41.1z M74.2,38.2c-0.3-0.1-0.7-0.2-1.4-0.2h-0.6v1.7h0.6
				c0.7,0,1.1-0.1,1.4-0.2c0.3-0.1,0.4-0.3,0.4-0.7C74.6,38.6,74.5,38.4,74.2,38.2L74.2,38.2z M86.6,42.4v1.4h-6.9v-7.2h6.8V38h-4.1
				v1.3h3.8v1.4h-3.8v1.5h4.2V42.4z M95.8,39.3c0.7,0.3,1.3,0.5,1.7,0.7c0.4,0.2,0.8,0.4,1,0.7s0.4,0.6,0.4,1c0,0.5-0.1,0.8-0.4,1.2
				c-0.3,0.3-0.7,0.6-1.2,0.7c-0.5,0.2-1.1,0.3-1.8,0.3c-0.2,0-0.4,0-0.7,0c-0.3,0-0.6-0.1-1.1-0.1c-0.4-0.1-0.9-0.2-1.4-0.4v-1.8
				c0.5,0.2,0.9,0.4,1.4,0.5c0.4,0.1,0.9,0.2,1.4,0.2s0.8-0.1,0.9-0.2c0.1-0.1,0.2-0.2,0.2-0.3c0-0.2-0.1-0.3-0.4-0.5
				c-0.2-0.1-0.6-0.3-1-0.4c-0.5-0.2-1-0.3-1.3-0.5c-0.4-0.2-0.7-0.4-0.9-0.7c-0.3-0.3-0.4-0.6-0.4-1s0.1-0.7,0.4-1s0.6-0.5,1.1-0.7
				s1.1-0.3,1.8-0.3c0.5,0,1,0,1.4,0.1s0.8,0.2,1.1,0.3c0.3,0.1,0.5,0.2,0.6,0.2V39c-0.4-0.2-0.8-0.4-1.3-0.6
				c-0.5-0.2-1-0.3-1.5-0.3c-0.3,0-0.6,0.1-0.7,0.1c-0.1,0.1-0.2,0.2-0.2,0.4c0,0.1,0.1,0.3,0.2,0.4C95.2,39,95.4,39.2,95.8,39.3
				L95.8,39.3z M106.1,40.5v3.3h-2.8v-3.3l-3.7-3.9h2.9l2.1,2.2l2.1-2.2h3L106.1,40.5L106.1,40.5z M113.9,39.3
				c0.7,0.3,1.3,0.5,1.7,0.7c0.4,0.2,0.8,0.4,1,0.7c0.3,0.3,0.4,0.6,0.4,1c0,0.5-0.1,0.8-0.4,1.2c-0.3,0.3-0.7,0.6-1.2,0.7
				c-0.5,0.2-1.1,0.3-1.8,0.3c-0.2,0-0.4,0-0.7,0c-0.3,0-0.6-0.1-1.1-0.1c-0.4-0.1-0.9-0.2-1.4-0.4v-1.8c0.5,0.2,0.9,0.4,1.4,0.5
				s0.9,0.2,1.4,0.2s0.8-0.1,0.9-0.2c0.1-0.1,0.2-0.2,0.2-0.3c0-0.2-0.1-0.3-0.4-0.5c-0.2-0.1-0.6-0.3-1-0.4c-0.5-0.2-1-0.3-1.3-0.5
				c-0.4-0.2-0.7-0.4-0.9-0.7c-0.3-0.3-0.4-0.6-0.4-1s0.1-0.7,0.4-1s0.6-0.5,1.1-0.7s1.1-0.3,1.8-0.3c0.5,0,1,0,1.4,0.1
				s0.8,0.2,1.1,0.3c0.3,0.1,0.5,0.2,0.6,0.2V39c-0.4-0.2-0.8-0.4-1.3-0.6c-0.5-0.2-1-0.3-1.5-0.3c-0.3,0-0.6,0.1-0.7,0.1
				c-0.1,0.1-0.2,0.2-0.2,0.4c0,0.1,0.1,0.3,0.2,0.4C113.3,39,113.6,39.2,113.9,39.3L113.9,39.3z M124.3,38.4v5.4h-2.8v-5.4h-3.4
				v-1.7h9.5v1.7H124.3L124.3,38.4z M136.2,42.4v1.4h-6.9v-7.2h6.8V38H132v1.3h3.8v1.4H132v1.5h4.2V42.4z M146,43.8v-4.1l-2.5,2.4
				h-0.2l-2.5-2.4v4.1h-2.7v-7.2h2.5l2.8,2.7l2.8-2.7h2.5v7.2H146L146,43.8z M154.5,39.3c0.7,0.3,1.3,0.5,1.7,0.7s0.8,0.4,1,0.7
				s0.4,0.6,0.4,1c0,0.5-0.1,0.8-0.4,1.2s-0.7,0.6-1.2,0.7c-0.5,0.2-1.1,0.3-1.8,0.3c-0.2,0-0.4,0-0.7,0s-0.6-0.1-1.1-0.1
				c-0.4-0.1-0.9-0.2-1.4-0.4v-1.8c0.5,0.2,0.9,0.4,1.4,0.5s0.9,0.2,1.4,0.2s0.8-0.1,0.9-0.2s0.2-0.2,0.2-0.3c0-0.2-0.1-0.3-0.4-0.5
				c-0.2-0.1-0.6-0.3-1-0.4c-0.5-0.2-1-0.3-1.3-0.5c-0.4-0.2-0.7-0.4-0.9-0.7c-0.3-0.3-0.4-0.6-0.4-1s0.1-0.7,0.4-1
				c0.3-0.3,0.6-0.5,1.1-0.7s1.1-0.3,1.8-0.3c0.5,0,1,0,1.4,0.1s0.8,0.2,1.1,0.3s0.5,0.2,0.6,0.2V39c-0.4-0.2-0.8-0.4-1.3-0.6
				c-0.5-0.2-1-0.3-1.5-0.3c-0.3,0-0.6,0.1-0.7,0.1c-0.1,0.1-0.2,0.2-0.2,0.4c0,0.1,0.1,0.3,0.2,0.4C153.8,39,154.1,39.2,154.5,39.3
				L154.5,39.3z"/>
		</g>
		<g>
			<g>
				<defs>
					<path id="SVGID_2_" d="M7.4,39.3c0.7,0.3,1.3,0.5,1.7,0.7c0.4,0.2,0.8,0.4,1,0.7c0.3,0.3,0.4,0.6,0.4,1c0,0.5-0.1,0.8-0.4,1.2
						c-0.3,0.3-0.7,0.6-1.2,0.7c-0.5,0.2-1.1,0.3-1.8,0.3c-0.2,0-0.4,0-0.7,0c-0.3,0-0.6-0.1-1.1-0.1c-0.4-0.1-0.9-0.2-1.4-0.4v-1.8
						c0.5,0.2,0.9,0.4,1.4,0.5s0.9,0.2,1.4,0.2s0.8-0.1,0.9-0.2c0.1-0.1,0.2-0.2,0.2-0.3c0-0.2-0.1-0.3-0.4-0.5
						c-0.2-0.1-0.6-0.3-1-0.4c-0.5-0.2-1-0.3-1.3-0.5c-0.4-0.2-0.7-0.4-0.9-0.7c-0.2-0.3-0.4-0.6-0.4-1s0.1-0.7,0.4-1
						s0.6-0.5,1.1-0.7s1.1-0.3,1.8-0.3c0.5,0,1,0,1.4,0.1s0.8,0.2,1.1,0.3s0.5,0.2,0.6,0.2V39c-0.4-0.2-0.8-0.4-1.3-0.6
						c-0.4-0.2-1-0.3-1.5-0.3c-0.3,0-0.6,0.1-0.7,0.1c-0.1,0.1-0.2,0.2-0.2,0.4c0,0.1,0.1,0.3,0.2,0.4C6.7,39,7,39.2,7.4,39.3
						L7.4,39.3z M21.6,42.1c-0.4,0.6-1,1-1.8,1.3s-1.7,0.5-2.8,0.5c-1.1,0-2.1-0.2-2.9-0.5c-0.8-0.3-1.4-0.8-1.8-1.4
						c-0.4-0.6-0.6-1.2-0.6-1.8s0.2-1.2,0.6-1.8c0.4-0.5,1-1,1.8-1.4c0.8-0.3,1.7-0.5,2.9-0.5c0.8,0,1.6,0.1,2.3,0.3
						s1.2,0.5,1.6,0.8s0.7,0.7,1,1.2c0.2,0.4,0.3,0.9,0.3,1.4C22.2,40.9,22,41.5,21.6,42.1L21.6,42.1z M19.2,39.5
						c-0.1-0.2-0.3-0.4-0.4-0.6c-0.2-0.2-0.4-0.3-0.7-0.4c-0.3-0.1-0.6-0.1-1-0.1c-0.7,0-1.3,0.2-1.7,0.5s-0.6,0.8-0.6,1.3
						s0.2,1,0.6,1.3c0.4,0.3,1,0.5,1.7,0.5c0.5,0,1-0.1,1.3-0.2c0.4-0.1,0.6-0.4,0.8-0.7c0.2-0.3,0.3-0.6,0.3-1
						C19.4,40,19.3,39.7,19.2,39.5L19.2,39.5z M30.5,39.5v1.4h-3.8v2.9h-2.8v-7.2h6.6V38h-3.8v1.4L30.5,39.5L30.5,39.5z M37.8,38.4
						v5.4H35v-5.4h-3.4v-1.7h9.5v1.7H37.8L37.8,38.4z M53.7,43.9h-1.6l-2.4-4.2l-2.4,4.2h-1.6l-3.9-7.3h2.9l1.9,4l2.2-4h2l2.1,4l2-4
						h2.8L53.7,43.9L53.7,43.9z M65.4,43.8l-0.7-1.4h-4l-0.8,1.4h-2.8l4.1-7.2h3.1l4.1,7.2H65.4L65.4,43.8z M62.7,38.5l-1.4,2.6H64
						L62.7,38.5L62.7,38.5z M76.7,41.1c0.2,0.2,0.4,0.5,0.8,1.1l0.9,1.6h-3l-0.7-1.3c-0.3-0.5-0.5-0.8-0.7-1s-0.4-0.3-0.6-0.4
						C73.2,41,73,41,72.6,41h-0.3v2.8h-2.8v-7.2h4.7c0.8,0,1.4,0.1,1.9,0.4c0.5,0.2,0.8,0.5,1,0.9c0.2,0.3,0.3,0.7,0.3,1
						c0,0.4-0.1,0.7-0.3,0.9c-0.2,0.3-0.4,0.4-0.6,0.5s-0.4,0.2-0.7,0.3C76.3,40.8,76.5,41,76.7,41.1L76.7,41.1z M74.2,38.2
						c-0.3-0.1-0.7-0.2-1.4-0.2h-0.6v1.7h0.6c0.7,0,1.1-0.1,1.4-0.2c0.3-0.1,0.4-0.3,0.4-0.7C74.6,38.6,74.5,38.4,74.2,38.2
						L74.2,38.2z M86.6,42.4v1.4h-6.9v-7.2h6.8V38h-4.1v1.3h3.8v1.4h-3.8v1.5h4.2V42.4z M95.8,39.3c0.7,0.3,1.3,0.5,1.7,0.7
						c0.4,0.2,0.8,0.4,1,0.7s0.4,0.6,0.4,1c0,0.5-0.1,0.8-0.4,1.2c-0.3,0.3-0.7,0.6-1.2,0.7c-0.5,0.2-1.1,0.3-1.8,0.3
						c-0.2,0-0.4,0-0.7,0c-0.3,0-0.6-0.1-1.1-0.1c-0.4-0.1-0.9-0.2-1.4-0.4v-1.8c0.5,0.2,0.9,0.4,1.4,0.5c0.4,0.1,0.9,0.2,1.4,0.2
						s0.8-0.1,0.9-0.2c0.1-0.1,0.2-0.2,0.2-0.3c0-0.2-0.1-0.3-0.4-0.5c-0.2-0.1-0.6-0.3-1-0.4c-0.5-0.2-1-0.3-1.3-0.5
						c-0.4-0.2-0.7-0.4-0.9-0.7c-0.3-0.3-0.4-0.6-0.4-1s0.1-0.7,0.4-1s0.6-0.5,1.1-0.7s1.1-0.3,1.8-0.3c0.5,0,1,0,1.4,0.1
						s0.8,0.2,1.1,0.3c0.3,0.1,0.5,0.2,0.6,0.2V39c-0.4-0.2-0.8-0.4-1.3-0.6c-0.5-0.2-1-0.3-1.5-0.3c-0.3,0-0.6,0.1-0.7,0.1
						c-0.1,0.1-0.2,0.2-0.2,0.4c0,0.1,0.1,0.3,0.2,0.4C95.2,39,95.4,39.2,95.8,39.3L95.8,39.3z M106.1,40.5v3.3h-2.8v-3.3l-3.7-3.9
						h2.9l2.1,2.2l2.1-2.2h3L106.1,40.5L106.1,40.5z M113.9,39.3c0.7,0.3,1.3,0.5,1.7,0.7c0.4,0.2,0.8,0.4,1,0.7
						c0.3,0.3,0.4,0.6,0.4,1c0,0.5-0.1,0.8-0.4,1.2c-0.3,0.3-0.7,0.6-1.2,0.7c-0.5,0.2-1.1,0.3-1.8,0.3c-0.2,0-0.4,0-0.7,0
						c-0.3,0-0.6-0.1-1.1-0.1c-0.4-0.1-0.9-0.2-1.4-0.4v-1.8c0.5,0.2,0.9,0.4,1.4,0.5s0.9,0.2,1.4,0.2s0.8-0.1,0.9-0.2
						c0.1-0.1,0.2-0.2,0.2-0.3c0-0.2-0.1-0.3-0.4-0.5c-0.2-0.1-0.6-0.3-1-0.4c-0.5-0.2-1-0.3-1.3-0.5c-0.4-0.2-0.7-0.4-0.9-0.7
						c-0.3-0.3-0.4-0.6-0.4-1s0.1-0.7,0.4-1s0.6-0.5,1.1-0.7s1.1-0.3,1.8-0.3c0.5,0,1,0,1.4,0.1s0.8,0.2,1.1,0.3
						c0.3,0.1,0.5,0.2,0.6,0.2V39c-0.4-0.2-0.8-0.4-1.3-0.6c-0.5-0.2-1-0.3-1.5-0.3c-0.3,0-0.6,0.1-0.7,0.1
						c-0.1,0.1-0.2,0.2-0.2,0.4c0,0.1,0.1,0.3,0.2,0.4C113.3,39,113.6,39.2,113.9,39.3L113.9,39.3z M124.3,38.4v5.4h-2.8v-5.4h-3.4
						v-1.7h9.5v1.7H124.3L124.3,38.4z M136.2,42.4v1.4h-6.9v-7.2h6.8V38H132v1.3h3.8v1.4H132v1.5h4.2V42.4z M146,43.8v-4.1l-2.5,2.4
						h-0.2l-2.5-2.4v4.1h-2.7v-7.2h2.5l2.8,2.7l2.8-2.7h2.5v7.2H146L146,43.8z M154.5,39.3c0.7,0.3,1.3,0.5,1.7,0.7s0.8,0.4,1,0.7
						s0.4,0.6,0.4,1c0,0.5-0.1,0.8-0.4,1.2s-0.7,0.6-1.2,0.7c-0.5,0.2-1.1,0.3-1.8,0.3c-0.2,0-0.4,0-0.7,0s-0.6-0.1-1.1-0.1
						c-0.4-0.1-0.9-0.2-1.4-0.4v-1.8c0.5,0.2,0.9,0.4,1.4,0.5s0.9,0.2,1.4,0.2s0.8-0.1,0.9-0.2s0.2-0.2,0.2-0.3
						c0-0.2-0.1-0.3-0.4-0.5c-0.2-0.1-0.6-0.3-1-0.4c-0.5-0.2-1-0.3-1.3-0.5c-0.4-0.2-0.7-0.4-0.9-0.7c-0.3-0.3-0.4-0.6-0.4-1
						s0.1-0.7,0.4-1c0.3-0.3,0.6-0.5,1.1-0.7s1.1-0.3,1.8-0.3c0.5,0,1,0,1.4,0.1s0.8,0.2,1.1,0.3s0.5,0.2,0.6,0.2V39
						c-0.4-0.2-0.8-0.4-1.3-0.6c-0.5-0.2-1-0.3-1.5-0.3c-0.3,0-0.6,0.1-0.7,0.1c-0.1,0.1-0.2,0.2-0.2,0.4c0,0.1,0.1,0.3,0.2,0.4
						C153.8,39,154.1,39.2,154.5,39.3L154.5,39.3z"/>
				</defs>
				<clipPath id="SVGID_3_">
					<use xlink:href="#SVGID_2_"  style="overflow:visible;"/>
				</clipPath>
				<g class="st1">
					
						<image style="overflow:visible;enable-background:new    ;" width="2011" height="798" xlink:href="5972DEDF.jpeg"  transform="matrix(0.1125 0 0 0.1106 -23.5721 -18.0118)">
					</image>
				</g>
			</g>
		</g>
	</g>
	<path class="st2" d="M31.2,14.5c-1.9,0-3.8,0-5.7,0c-0.4,0-0.6,0.1-0.9,0.3c-2.1,2-4.2,4-6.3,6c-0.3,0.3-0.5,0.3-0.8,0
		c-2.1-2-4.1-4-6.2-6c-0.3-0.3-0.6-0.3-1-0.3c-1.8,0-3.6,0-5.4,0c-0.9,0-1.1,0.2-1.1,0.9c0,5.8,0,11.6,0,17.4c0,0.7,0.3,0.9,1.1,0.9
		c1.9,0,3.7,0,5.6,0c0.9,0,1.1-0.2,1.1-0.9c0-2.8,0-5.6,0-8.4c0-0.1-0.1-0.3,0.1-0.5c0.2,0.1,0.3,0.2,0.4,0.3
		c1.6,1.5,3.2,3.1,4.8,4.6c0.6,0.5,1.2,0.5,1.8,0c0.6-0.6,1.2-1.2,1.8-1.7c1.1-1,2.2-2.1,3.3-3.1h0.1c0,0.1,0,0.3,0,0.5
		c0,2.8,0,5.6,0,8.4c0,0.6,0.3,0.8,1.1,0.8c2,0,4,0,6.1,0c0.7,0,1-0.3,1-0.8c0-5.9,0-11.7,0-17.7C32.2,14.8,31.9,14.5,31.2,14.5z"/>
	<path class="st2" d="M72.4,27.3c-0.4-0.7-1-1.3-1.7-1.7c-0.4-0.3-0.3-0.4,0.1-0.5c1.3-0.6,2.1-1.6,2.5-2.6c1.1-3.2-1.2-6.7-5.8-7.6
		c-1.1-0.2-2.2-0.2-3.3-0.2c-3.6,0-7.2,0-10.7,0c-0.9,0-1.2,0.2-1.2,0.9c0,2.9,0,5.8,0,8.7s0,5.8,0,8.7c0,0.7,0.3,0.9,1.1,0.9
		c2,0,4,0,5.9,0c0.8,0,1.1-0.2,1.1-0.8c0-1,0-1.9,0-2.9s0-2,0-3c0-0.2,0-0.4,0.4-0.4c1.1,0,2.1,0.1,2.8,0.8c0.7,0.7,1.2,1.4,1.7,2.2
		c0.7,1.3,1.4,2.5,2.2,3.8c0.1,0.2,0.3,0.4,0.6,0.4c2.4,0,4.8,0,7.2,0c0.6,0,0.9-0.5,0.7-0.9C74.6,31,73.6,29.1,72.4,27.3z M65,21.9
		c-0.3,0.3-0.8,0.4-1.2,0.5c-1,0.2-2,0.1-2.9,0.1c-0.4,0-0.5-0.1-0.5-0.4c0-0.5,0-1,0-1.4c0-0.5,0-0.9,0-1.4c0-0.2,0.1-0.3,0.4-0.3
		c1,0,2,0,3,0.2C65.2,19.5,65.8,20.9,65,21.9z"/>
	<path class="st2" d="M102.6,27.3c-2.3-4.1-4.6-8.1-6.9-12.2c-0.2-0.4-0.5-0.5-1-0.5c-2.4,0-4.7,0-7.1,0c-0.5,0-0.8,0.1-1,0.5
		c-1,1.8-2,3.6-3,5.4c-2.3,4.1-4.7,8.2-7,12.3c-0.4,0.7-0.1,1,0.8,1c2.1,0,4.2,0,6.4,0c0.4,0,0.7-0.1,0.8-0.5c0.5-1,1-1.9,1.5-2.8
		c0.1-0.3,0.4-0.5,0.8-0.4c1.4,0,2.8,0,4.1,0c1.4,0,2.8,0,4.2,0c0.4,0,0.7,0.1,0.8,0.4c0.5,1,1,1.9,1.5,2.9c0.1,0.3,0.4,0.4,0.8,0.4
		c2.2,0,4.3,0,6.5,0c0.8,0,1.1-0.4,0.8-1C104.7,31,103.7,29.1,102.6,27.3z M92.6,26c-1.2,0-2.3,0-3.5,0c-0.4,0-0.5-0.1-0.4-0.4
		c0.8-1.5,1.6-3,2.3-4.4c0-0.1,0.1-0.1,0.2-0.2c0.7,1.5,1.5,2.9,2.2,4.2C93.8,26,93.8,26,92.6,26z"/>
	<path class="st2" d="M175.8,29.2c-2.9,0-5.8,0-8.6,0c-0.6,0-0.7-0.1-0.7-0.5c0-0.6,0-1.2,0-1.8c0-0.6,0-0.6,0.8-0.6
		c2.7,0,5.3,0,8,0c0.8,0,1.1-0.2,1.1-0.9c0-0.9,0-1.8,0-2.6c0-1-0.2-1.1-1.4-1.1c-2.5,0-5.1,0-7.7,0c-0.8,0-0.8,0-0.8-0.6
		c0-0.3,0-0.7,0-1.1c0-0.8-0.1-0.8,1-0.8c2.7,0,5.4,0,8.2,0c0.9,0,1.2-0.2,1.2-0.9c0-0.9,0-1.8,0-2.7c0-0.7-0.3-0.9-1.2-0.9
		c-5.4,0-10.7,0-16.1,0c-0.9,0-1.1,0.2-1.1,0.9c0,2.9,0,5.8,0,8.7s0,5.8,0,8.8c0,0.6,0.3,0.8,1,0.8c5.6,0,11.2,0,16.7,0
		c0.7,0,1-0.3,1-0.8c0-0.9,0-1.8,0-2.8C177.1,29.3,176.9,29.2,175.8,29.2z"/>
	<path class="st2" d="M130.7,27.8c0-0.7-0.6-1-1.3-0.6c-1.5,0.7-3,1.2-4.7,1.5c-1.8,0.3-3.6,0.3-5.3-0.2c-2.3-0.7-3.8-2-4-3.9
		c-0.2-2,1.1-3.5,3.5-4.4c2.3-0.8,4.6-0.8,6.9-0.3c1.3,0.3,2.4,0.8,3.6,1.4c0.6,0.3,1.2,0,1.2-0.5c0-0.7,0-1.5,0-2.2s0-1.4,0-2
		c0-0.5-0.2-0.7-0.7-0.8c-0.9-0.2-1.7-0.4-2.6-0.6c-3.8-0.8-7.6-1-11.5-0.1c-3.7,0.9-6.5,2.6-7.9,5.4c-0.8,1.6-1,3.3-0.7,5.1
		c0.5,3.6,2.9,6.1,7.1,7.6c2,0.7,4.2,1,6.4,1c3.3,0,6.5-0.4,9.5-1.6c0.4-0.2,0.6-0.4,0.6-0.7C130.6,30.4,130.7,29.1,130.7,27.8z"/>
	<path class="st2" d="M153,28.5c-2.9,0-5.7,0-8.6,0c-0.9,0-0.9,0-0.9-0.7c0-4.1,0-8.3,0-12.4c0-0.6-0.3-0.8-1.1-0.9
		c-2,0-3.9,0-5.9,0c-0.9,0-1.1,0.2-1.1,0.9c0,2.9,0,5.8,0,8.7s0,5.9,0,8.8c0,0.6,0.3,0.8,1,0.8c5.6,0,11.2,0,16.8,0
		c0.7,0,1-0.2,1-0.8c0-1.2,0-2.4,0-3.5C154.2,28.6,154,28.5,153,28.5z"/>
	<path class="st2" d="M45.2,14.5c-2,0-3.9,0-5.8,0c-1,0-1.2,0.2-1.2,1c0,2.9,0,5.8,0,8.6c0,2.9,0,5.8,0,8.7c0,0.7,0.3,0.9,1.1,0.9
		c2,0,3.9,0,5.9,0c0.8,0,1.1-0.3,1.1-0.9c0-5.8,0-11.6,0-17.4C46.3,14.8,46,14.5,45.2,14.5z"/>
	<path class="st2" d="M42.1,13c2.3,0,4.1-1.4,4.1-3.2s-1.8-3.2-4.1-3.2S38,8,38,9.8S39.8,13,42.1,13z"/>
</g>
</svg>
