<?xml version="1.0" encoding="utf-8"?>
<!-- Generator: Adobe Illustrator 20.1.0, SVG Export Plug-In . SVG Version: 6.00 Build 0)  -->
<svg version="1.1" id="Layer_1" xmlns="http://www.w3.org/2000/svg" xmlns:xlink="http://www.w3.org/1999/xlink" x="0px" y="0px"
	 viewBox="0 0 149.7 41.3" style="enable-background:new 0 0 149.7 41.3;" xml:space="preserve">
<style type="text/css">
	.st0{fill:#00AAE6;}
	.st1{fill:#FCFDFF;}
</style>
<title>miracle-logo</title>
<g>
	<g>
		<polygon class="st0" points="107.7,35.9 110.6,35.9 110.6,34.5 107.7,34.5 107.7,33.2 110.8,33.2 110.8,31.8 105.6,31.8 
			105.6,38.8 110.9,38.8 110.9,37.4 107.7,37.4 		"/>
		<polygon class="st0" points="69.9,35.9 72.9,35.9 72.9,34.5 69.9,34.5 69.9,33.2 73,33.2 73,31.8 67.8,31.8 67.8,38.8 73.1,38.8 
			73.1,37.4 69.9,37.4 		"/>
		<polygon class="st0" points="86.9,34 85.3,31.8 83.1,31.8 85.9,35.6 85.9,38.8 88,38.8 88,35.6 90.7,31.8 88.5,31.8 		"/>
		<path class="st0" d="M81.4,35c-0.3-0.2-0.8-0.4-1.3-0.7c-0.3-0.1-0.5-0.3-0.6-0.4c-0.1-0.1-0.2-0.2-0.2-0.4c0-0.1,0.1-0.3,0.2-0.4
			c0.1-0.1,0.3-0.2,0.6-0.2c0.4,0,0.8,0.1,1.1,0.2c0.4,0.2,0.7,0.3,1,0.5v-1.6c-0.1-0.1-0.2-0.1-0.4-0.2c-0.2-0.1-0.5-0.2-0.8-0.3
			c-0.3-0.1-0.7-0.1-1.1-0.1c-0.5,0-1,0.1-1.4,0.3c-0.4,0.2-0.7,0.4-0.8,0.7c-0.2,0.3-0.3,0.6-0.3,1c0,0.4,0.1,0.7,0.3,1
			c0.2,0.3,0.4,0.5,0.7,0.7c0.3,0.2,0.6,0.4,1,0.5c0.3,0.1,0.6,0.3,0.8,0.4c0.2,0.1,0.3,0.3,0.3,0.5c0,0.1-0.1,0.2-0.2,0.3
			c-0.1,0.1-0.3,0.2-0.7,0.2c-0.4,0-0.8-0.1-1.1-0.2c-0.3-0.1-0.7-0.3-1-0.5v1.7c0.4,0.2,0.7,0.3,1.1,0.4c0.3,0.1,0.6,0.1,0.8,0.2
			c0.2,0,0.4,0,0.5,0c0.5,0,1-0.1,1.4-0.3c0.4-0.2,0.7-0.4,0.9-0.7c0.2-0.3,0.3-0.7,0.3-1.1c0-0.4-0.1-0.7-0.3-1
			C82,35.5,81.8,35.2,81.4,35z"/>
		<path class="st0" d="M95.2,35c-0.3-0.2-0.8-0.4-1.3-0.7c-0.3-0.1-0.5-0.3-0.6-0.4c-0.1-0.1-0.2-0.2-0.2-0.4c0-0.1,0.1-0.3,0.2-0.4
			c0.1-0.1,0.3-0.2,0.6-0.2c0.4,0,0.8,0.1,1.1,0.2c0.4,0.2,0.7,0.3,1,0.5v-1.6c-0.1-0.1-0.2-0.1-0.4-0.2c-0.2-0.1-0.5-0.2-0.8-0.3
			c-0.3-0.1-0.7-0.1-1.1-0.1c-0.5,0-1,0.1-1.4,0.3c-0.4,0.2-0.7,0.4-0.8,0.7c-0.2,0.3-0.3,0.6-0.3,1c0,0.4,0.1,0.7,0.3,1
			c0.2,0.3,0.4,0.5,0.7,0.7c0.3,0.2,0.6,0.4,1,0.5c0.3,0.1,0.6,0.3,0.8,0.4c0.2,0.1,0.3,0.3,0.3,0.5c0,0.1-0.1,0.2-0.2,0.3
			c-0.1,0.1-0.3,0.2-0.7,0.2c-0.4,0-0.8-0.1-1.1-0.2c-0.3-0.1-0.7-0.3-1-0.5v1.7c0.4,0.2,0.7,0.3,1.1,0.4c0.3,0.1,0.6,0.1,0.8,0.2
			c0.2,0,0.4,0,0.5,0c0.5,0,1-0.1,1.4-0.3c0.4-0.2,0.7-0.4,0.9-0.7c0.2-0.3,0.3-0.7,0.3-1.1c0-0.4-0.1-0.7-0.3-1
			C95.8,35.5,95.5,35.2,95.2,35z"/>
		<path class="st0" d="M126.8,35.7c-0.2-0.3-0.4-0.5-0.8-0.7c-0.3-0.2-0.8-0.4-1.3-0.7c-0.3-0.1-0.5-0.3-0.6-0.4
			c-0.1-0.1-0.2-0.2-0.2-0.4c0-0.1,0.1-0.3,0.2-0.4c0.1-0.1,0.3-0.2,0.6-0.2c0.4,0,0.8,0.1,1.1,0.2c0.3,0.2,0.7,0.3,1,0.5v-1.6
			c-0.1-0.1-0.2-0.1-0.4-0.2c-0.2-0.1-0.5-0.2-0.8-0.3c-0.3-0.1-0.7-0.1-1.1-0.1c-0.5,0-1,0.1-1.4,0.3c-0.4,0.2-0.7,0.4-0.8,0.7
			c-0.2,0.3-0.3,0.6-0.3,1c0,0.4,0.1,0.7,0.3,1c0.2,0.3,0.4,0.5,0.7,0.7c0.3,0.2,0.6,0.4,1,0.5c0.3,0.1,0.6,0.3,0.8,0.4
			c0.2,0.1,0.3,0.3,0.3,0.5c0,0.1-0.1,0.2-0.2,0.3c-0.1,0.1-0.3,0.2-0.7,0.2c-0.4,0-0.8-0.1-1.1-0.2c-0.3-0.1-0.7-0.3-1-0.5v1.7
			c0.4,0.2,0.7,0.3,1.1,0.4c0.3,0.1,0.6,0.1,0.8,0.2c0.2,0,0.4,0,0.5,0c0.5,0,1-0.1,1.4-0.3c0.4-0.2,0.7-0.4,0.9-0.7
			c0.2-0.3,0.3-0.7,0.3-1.1C127,36.3,127,36,126.8,35.7z"/>
		<path class="st0" d="M14.2,35c-0.3-0.2-0.8-0.4-1.3-0.7c-0.3-0.1-0.5-0.3-0.6-0.4c-0.1-0.1-0.2-0.2-0.2-0.4c0-0.1,0.1-0.3,0.2-0.4
			c0.1-0.1,0.3-0.2,0.6-0.2c0.4,0,0.8,0.1,1.1,0.2c0.4,0.2,0.7,0.3,1,0.5v-1.6c-0.1-0.1-0.2-0.1-0.4-0.2c-0.2-0.1-0.5-0.2-0.8-0.3
			c-0.3-0.1-0.7-0.1-1.1-0.1c-0.5,0-1,0.1-1.4,0.3c-0.4,0.2-0.7,0.4-0.8,0.7c-0.2,0.3-0.3,0.6-0.3,1c0,0.4,0.1,0.7,0.3,1
			c0.2,0.3,0.4,0.5,0.7,0.7c0.3,0.2,0.6,0.4,1,0.5c0.3,0.1,0.6,0.3,0.8,0.4c0.2,0.1,0.3,0.3,0.3,0.5c0,0.1-0.1,0.2-0.2,0.3
			c-0.1,0.1-0.3,0.2-0.7,0.2c-0.4,0-0.8-0.1-1.1-0.2c-0.3-0.1-0.7-0.3-1-0.5v1.7c0.4,0.2,0.7,0.3,1.1,0.4c0.3,0.1,0.6,0.1,0.8,0.2
			c0.2,0,0.4,0,0.5,0c0.5,0,1-0.1,1.4-0.3c0.4-0.2,0.7-0.4,0.9-0.7c0.2-0.3,0.3-0.7,0.3-1.1c0-0.4-0.1-0.7-0.3-1
			C14.8,35.5,14.5,35.2,14.2,35z"/>
		<polygon class="st0" points="97.1,33.5 99.7,33.5 99.7,38.8 101.8,38.8 101.8,33.5 104.4,33.5 104.4,31.8 97.1,31.8 		"/>
		<polygon class="st0" points="116.3,34.4 114.2,31.8 112.3,31.8 112.3,38.8 114.3,38.8 114.3,34.7 116.2,37.1 116.4,37.1 
			118.3,34.7 118.3,38.8 120.4,38.8 120.4,31.8 118.5,31.8 		"/>
		<polygon class="st0" points="31.4,33.5 33.9,33.5 33.9,38.8 36,38.8 36,33.5 38.6,33.5 38.6,31.8 31.4,31.8 		"/>
		<polygon class="st0" points="25.5,38.8 27.6,38.8 27.6,35.9 30.5,35.9 30.5,34.5 27.6,34.5 27.6,33.2 30.5,33.2 30.5,31.8 
			25.5,31.8 		"/>
		<path class="st0" d="M23.2,32.7c-0.3-0.3-0.7-0.6-1.2-0.8c-0.5-0.2-1.1-0.3-1.7-0.3c-0.9,0-1.6,0.2-2.2,0.5
			c-0.6,0.3-1,0.8-1.3,1.3c-0.3,0.5-0.4,1.1-0.4,1.8c0,0.6,0.1,1.2,0.4,1.8c0.3,0.5,0.7,1,1.3,1.3c0.6,0.3,1.3,0.5,2.2,0.5
			c0.9,0,1.6-0.2,2.2-0.5c0.6-0.3,1-0.8,1.3-1.3c0.3-0.5,0.5-1.1,0.5-1.8c0-0.5-0.1-0.9-0.3-1.4C23.7,33.5,23.5,33.1,23.2,32.7z
			 M21.8,36.2c-0.1,0.3-0.3,0.5-0.6,0.6c-0.3,0.2-0.6,0.2-1,0.2c-0.6,0-1-0.2-1.3-0.5c-0.3-0.3-0.5-0.8-0.5-1.3c0-0.5,0.2-1,0.5-1.3
			c0.3-0.3,0.8-0.5,1.3-0.5c0.3,0,0.6,0,0.8,0.1c0.2,0.1,0.4,0.2,0.6,0.4c0.2,0.2,0.3,0.3,0.3,0.6C22,34.8,22,35,22,35.3
			C22,35.6,21.9,35.9,21.8,36.2z"/>
		<polygon class="st0" points="49,31.8 47.5,35.6 45.8,31.8 44.3,31.8 42.7,35.6 41.2,31.8 39,31.8 42,38.8 43.2,38.8 45.1,34.7 
			46.9,38.8 48.1,38.8 51.1,31.8 		"/>
		<path class="st0" d="M53.8,31.8l-3.1,7h2.2l0.6-1.4h3l0.6,1.4h2.2l-3.1-7H53.8z M53.9,36.1l1-2.6l1,2.6H53.9z"/>
		<path class="st0" d="M65.6,36.1c-0.1-0.2-0.3-0.3-0.6-0.5c0.2-0.1,0.4-0.2,0.5-0.3c0.2-0.1,0.3-0.3,0.4-0.5
			c0.1-0.2,0.2-0.5,0.2-0.9c0-0.3-0.1-0.6-0.2-1c-0.2-0.3-0.4-0.6-0.8-0.9c-0.4-0.2-0.8-0.4-1.4-0.4h-3.6v7h2.1V36h0.2
			c0.2,0,0.4,0,0.6,0.1c0.2,0.1,0.3,0.2,0.5,0.4c0.2,0.2,0.3,0.5,0.5,1l0.5,1.2h2.3l-0.7-1.5C65.9,36.7,65.7,36.3,65.6,36.1z
			 M63.7,34.6c-0.2,0.1-0.5,0.2-1.1,0.2h-0.5v-1.7h0.4c0.5,0,0.8,0.1,1,0.2c0.2,0.1,0.3,0.4,0.3,0.7C64,34.3,63.9,34.5,63.7,34.6z"
			/>
	</g>
	<g>
		<path class="st1" d="M31,10.2c-1.4,0-2.9,0-4.3,0c-0.3,0-0.5,0.1-0.7,0.3c-1.6,1.9-3.2,3.9-4.8,5.8c-0.3,0.3-0.4,0.3-0.6,0
			c-1.6-1.9-3.2-3.9-4.7-5.8c-0.2-0.2-0.4-0.3-0.7-0.3c-1.4,0-2.8,0-4.1,0c-0.7,0-0.9,0.2-0.9,0.9c0,5.7,0,11.3,0,17
			c0,0.7,0.2,0.9,0.9,0.9c1.4,0,2.8,0,4.3,0c0.7,0,0.9-0.2,0.9-0.9c0-2.7,0-5.4,0-8.2c0-0.2,0-0.3,0.1-0.5c0.1,0.1,0.2,0.2,0.3,0.3
			c1.2,1.5,2.4,3,3.7,4.5c0.5,0.5,0.9,0.5,1.4,0c0.5-0.6,0.9-1.1,1.4-1.7c0.8-1,1.7-2,2.5-3.1l0.1,0c0,0.2,0,0.3,0,0.5
			c0,2.7,0,5.5,0,8.2c0,0.6,0.2,0.8,0.8,0.8c1.5,0,3.1,0,4.6,0c0.5,0,0.8-0.2,0.8-0.8c0-5.7,0-11.5,0-17.2
			C31.8,10.4,31.6,10.2,31,10.2z"/>
		<path class="st1" d="M62.3,22.6C62,22,61.6,21.4,61,21c-0.3-0.2-0.2-0.4,0.1-0.5c1-0.6,1.6-1.5,1.9-2.6c0.9-3.1-0.9-6.5-4.4-7.4
			c-0.8-0.2-1.7-0.2-2.5-0.2c-2.7,0-5.4,0-8.2,0c-0.7,0-0.9,0.2-0.9,0.9c0,2.8,0,5.6,0,8.5c0,2.8,0,5.7,0,8.5c0,0.7,0.2,0.9,0.8,0.9
			c1.5,0,3,0,4.5,0c0.6,0,0.8-0.2,0.8-0.8c0-0.9,0-1.9,0-2.8c0-1,0-2,0-2.9c0-0.2,0-0.4,0.3-0.4c0.8,0,1.6,0.1,2.1,0.8
			c0.5,0.6,0.9,1.3,1.3,2.1c0.6,1.2,1.1,2.5,1.7,3.7c0.1,0.2,0.2,0.4,0.5,0.4c1.8,0,3.6,0,5.5,0c0.5,0,0.7-0.4,0.5-0.8
			C64,26.3,63.2,24.4,62.3,22.6z M56.6,17.3c-0.2,0.3-0.6,0.4-0.9,0.5c-0.7,0.2-1.5,0.1-2.2,0.1c-0.3,0-0.4-0.1-0.4-0.4
			c0-0.5,0-0.9,0-1.4c0-0.4,0-0.9,0-1.3c0-0.2,0.1-0.3,0.3-0.3c0.8,0,1.5,0,2.3,0.2C56.8,15,57.3,16.4,56.6,17.3z"/>
		<path class="st1" d="M85.3,22.6c-1.7-4-3.5-7.9-5.2-11.9c-0.2-0.4-0.4-0.5-0.8-0.5c-1.8,0-3.6,0-5.4,0c-0.4,0-0.6,0.1-0.8,0.5
			c-0.8,1.7-1.5,3.5-2.3,5.2c-1.8,4-3.5,8-5.3,12c-0.3,0.6,0,1,0.6,1c1.6,0,3.2,0,4.9,0c0.3,0,0.5-0.1,0.6-0.4
			c0.4-0.9,0.8-1.8,1.1-2.8c0.1-0.3,0.3-0.4,0.6-0.4c1,0,2.1,0,3.1,0c1.1,0,2.1,0,3.2,0c0.3,0,0.5,0.1,0.6,0.4
			c0.4,0.9,0.8,1.9,1.1,2.8c0.1,0.3,0.3,0.4,0.6,0.4c1.6,0,3.3,0,4.9,0c0.6,0,0.9-0.4,0.6-1C86.9,26.2,86.1,24.4,85.3,22.6z
			 M77.7,21.4c-0.9,0-1.8,0-2.7,0c-0.3,0-0.4-0.1-0.3-0.4c0.6-1.4,1.2-2.9,1.8-4.3c0,0,0.1-0.1,0.1-0.2c0.6,1.4,1.1,2.8,1.6,4.1
			C78.6,21.4,78.6,21.4,77.7,21.4z"/>
		<path class="st1" d="M140.9,24.5c-2.2,0-4.4,0-6.6,0c-0.4,0-0.6-0.1-0.5-0.5c0-0.6,0-1.2,0-1.8c0-0.6,0-0.6,0.6-0.6c2,0,4,0,6.1,0
			c0.6,0,0.8-0.2,0.8-0.8c0-0.9,0-1.7,0-2.6c0-0.9-0.1-1.1-1-1.1c-1.9,0-3.9,0-5.8,0c-0.6,0-0.6,0-0.6-0.6c0-0.3,0-0.7,0-1
			c0-0.8-0.1-0.8,0.8-0.8c2.1,0,4.1,0,6.2,0c0.7,0,0.9-0.2,0.9-0.9c0-0.9,0-1.8,0-2.7c0-0.7-0.2-0.9-0.9-0.9c-4.1,0-8.2,0-12.3,0
			c-0.7,0-0.9,0.2-0.9,0.9c0,2.8,0,5.6,0,8.5c0,2.9,0,5.7,0,8.6c0,0.6,0.2,0.8,0.8,0.8c4.2,0,8.5,0,12.7,0c0.5,0,0.8-0.2,0.8-0.8
			c0-0.9,0-1.8,0-2.7C141.9,24.6,141.8,24.5,140.9,24.5z"/>
		<path class="st1" d="M106.6,23.1c0-0.7-0.4-0.9-1-0.6c-1.1,0.7-2.3,1.2-3.6,1.4c-1.4,0.3-2.7,0.3-4-0.2c-1.8-0.7-2.9-1.9-3.1-3.8
			c-0.2-1.9,0.8-3.5,2.6-4.3c1.7-0.8,3.5-0.8,5.3-0.3c1,0.3,1.9,0.8,2.7,1.3c0.5,0.3,0.9,0,0.9-0.5c0-0.7,0-1.4,0-2.1
			c0-0.7,0-1.3,0-2c0-0.4-0.1-0.7-0.6-0.8c-0.7-0.2-1.3-0.4-2-0.6c-2.9-0.8-5.8-1-8.7-0.1c-2.8,0.8-4.9,2.5-6,5.3
			c-0.6,1.6-0.8,3.3-0.6,4.9c0.4,3.5,2.2,6,5.4,7.4c1.5,0.7,3.2,0.9,4.9,1c2.5,0,4.9-0.4,7.2-1.5c0.3-0.2,0.5-0.4,0.5-0.7
			C106.6,25.6,106.6,24.4,106.6,23.1z"/>
		<path class="st1" d="M123.6,23.8c-2.2,0-4.4,0-6.5,0c-0.7,0-0.7,0-0.7-0.7c0-4,0-8.1,0-12.1c0-0.6-0.2-0.8-0.8-0.8
			c-1.5,0-3,0-4.5,0c-0.7,0-0.9,0.2-0.9,0.9c0,2.8,0,5.6,0,8.5c0,2.9,0,5.7,0,8.6c0,0.6,0.2,0.8,0.8,0.8c4.3,0,8.5,0,12.8,0
			c0.6,0,0.8-0.2,0.8-0.8c0-1.1,0-2.3,0-3.4C124.5,24,124.4,23.8,123.6,23.8z"/>
		<path class="st1" d="M41.7,10.2c-1.5,0-3,0-4.4,0c-0.7,0-0.9,0.2-0.9,0.9c0,2.8,0,5.6,0,8.4c0,2.8,0,5.7,0,8.5
			c0,0.7,0.2,0.9,0.9,0.9c1.5,0,3,0,4.5,0c0.6,0,0.9-0.2,0.9-0.9c0-5.7,0-11.3,0-17C42.5,10.5,42.3,10.2,41.7,10.2z"/>
		<circle class="st1" cx="39.3" cy="5.6" r="3.1"/>
	</g>
</g>
</svg>
