<?xml version="1.0" encoding="utf-8"?>
<!-- Generator: Adobe Illustrator 22.0.1, SVG Export Plug-In . SVG Version: 6.00 Build 0)  -->
<svg version="1.1" id="Layer_1" xmlns="http://www.w3.org/2000/svg" xmlns:xlink="http://www.w3.org/1999/xlink" x="0px" y="0px"
	 viewBox="0 0 981 280" style="enable-background:new 0 0 981 280;" xml:space="preserve">
<style type="text/css">
	.st0{fill:#0069FF;}
	.st1{enable-background:new    ;}
	.st2{fill:#FFFFFF;}
</style>
<path class="st0" d="M840.8,275H139.4C65,275,5.2,215.2,5.2,140.8l0,0C5.2,66.3,65,6.6,139.4,6.6h701.4
	C915.2,6.6,975,66.3,975,140.8l0,0C975,215.2,915.2,275,840.8,275z"/>
<g class="st1">
	<path class="st2" d="M363,177h-17.8v-69.1h-22.8V93.1h63.4v14.8H363V177z"/>
	<path class="st2" d="M427.3,111.7c2.4,0,4.3,0.2,5.9,0.5l-1.3,16.4c-1.4-0.4-3.1-0.6-5.2-0.6c-5.6,0-9.9,1.4-13.1,4.3
		c-3.1,2.9-4.7,6.9-4.7,12.1V177h-17.5v-64.2h13.3l2.6,10.8h0.9c2-3.6,4.7-6.5,8.1-8.7C419.7,112.8,423.4,111.7,427.3,111.7z"/>
	<path class="st2" d="M435.7,112.9h19.2L467,149c1,3.1,1.7,6.8,2.1,11.1h0.3c0.4-3.9,1.2-7.7,2.5-11.1l11.9-36.1h18.8l-27.1,72.4
		c-2.5,6.7-6,11.7-10.6,15c-4.6,3.3-10,5-16.2,5c-3,0-6-0.3-8.9-1v-13.9c2.1,0.5,4.4,0.7,6.9,0.7c3.1,0,5.8-0.9,8.1-2.8
		c2.3-1.9,4.1-4.8,5.4-8.6l1-3.2L435.7,112.9z"/>
	<path class="st2" d="M541.6,96.3c0-5.7,3.2-8.6,9.5-8.6c6.4,0,9.5,2.9,9.5,8.6c0,2.7-0.8,4.8-2.4,6.3c-1.6,1.5-4,2.3-7.1,2.3
		C544.7,104.9,541.6,102,541.6,96.3z M559.8,177h-17.5v-64.2h17.5V177z"/>
	<path class="st2" d="M605.2,164.2c3.1,0,6.7-0.7,11-2v13c-4.4,2-9.7,2.9-16.1,2.9c-7,0-12.1-1.8-15.3-5.3
		c-3.2-3.5-4.8-8.8-4.8-15.9V126h-8.4v-7.4l9.6-5.9l5.1-13.5h11.2v13.7h18V126h-18v30.9c0,2.5,0.7,4.3,2.1,5.5
		C601.1,163.6,602.9,164.2,605.2,164.2z"/>
	<path class="st2" d="M718.1,144.8c0,10.4-2.8,18.6-8.3,24.5c-5.5,5.9-13.2,8.8-23,8.8c-6.2,0-11.6-1.3-16.3-4
		c-4.7-2.7-8.3-6.6-10.8-11.6c-2.5-5.1-3.8-10.9-3.8-17.7c0-10.5,2.7-18.6,8.2-24.5c5.5-5.8,13.2-8.7,23.1-8.7
		c6.2,0,11.6,1.3,16.3,4c4.7,2.7,8.3,6.5,10.8,11.5S718.1,138.1,718.1,144.8z M673.7,144.8c0,6.4,1,11.2,3.1,14.4
		c2.1,3.3,5.5,4.9,10.2,4.9c4.7,0,8-1.6,10.1-4.8c2-3.2,3.1-8,3.1-14.4c0-6.4-1-11.1-3.1-14.3c-2.1-3.2-5.5-4.8-10.2-4.8
		c-4.7,0-8,1.6-10.1,4.7C674.7,133.7,673.7,138.4,673.7,144.8z"/>
	<path class="st2" d="M778,177l-2.4-8.2h-0.9c-1.9,3-4.5,5.3-8,6.9c-3.4,1.6-7.4,2.4-11.8,2.4c-7.5,0-13.2-2-17-6.1
		c-3.8-4-5.7-9.8-5.7-17.4v-41.8h17.5v37.5c0,4.6,0.8,8.1,2.5,10.4c1.6,2.3,4.3,3.5,7.9,3.5c4.9,0,8.4-1.6,10.6-4.9
		c2.2-3.3,3.3-8.7,3.3-16.3v-30.2h17.5V177H778z"/>
	<path class="st2" d="M836.8,164.2c3.1,0,6.7-0.7,11-2v13c-4.4,2-9.7,2.9-16.1,2.9c-7,0-12.1-1.8-15.3-5.3
		c-3.2-3.5-4.8-8.8-4.8-15.9V126h-8.4v-7.4l9.6-5.9l5.1-13.5h11.2v13.7h18V126h-18v30.9c0,2.5,0.7,4.3,2.1,5.5
		C832.7,163.6,834.5,164.2,836.8,164.2z"/>
</g>
<g>
	<path class="st2" d="M211.7,61.4c-40.2-5.9-77.4,20.6-83.3,60.7c-3.9,23.5,4.9,47,19.6,62.7l-5.9,36.2l33.3-18.6
		c3.9,2,8.8,2.9,13.7,3.9c40.2,5.9,77.4-20.6,83.3-60.7C278.3,105.5,250.9,67.3,211.7,61.4z"/>
	<g>
		
			<ellipse transform="matrix(0.1602 -0.9871 0.9871 0.1602 36.1008 310.2024)" class="st0" cx="200.3" cy="133.9" rx="44.1" ry="44.1"/>
		<path class="st2" d="M180.8,139.8c0,10.8,8.8,19.6,19.6,19.6c10.8,0,19.6-8.8,19.6-19.6H180.8z"/>
		<circle class="st2" cx="184.7" cy="121.2" r="7.8"/>
		<circle class="st2" cx="217" cy="121.2" r="7.8"/>
	</g>
</g>
</svg>
