<?xml version="1.0" encoding="utf-8"?>
<!-- Generator: Adobe Illustrator 22.0.1, SVG Export Plug-In . SVG Version: 6.00 Build 0)  -->
<svg version="1.1" id="Layer_1" xmlns="http://www.w3.org/2000/svg" xmlns:xlink="http://www.w3.org/1999/xlink" x="0px" y="0px"
	 viewBox="0 0 546 546" style="enable-background:new 0 0 546 546;" xml:space="preserve">
<g>
	<path d="M270.7,18.4C129.9,19.2,16.1,131.6,16,273c-0.1,140.7,112.8,254.3,254,254.6c140.6,0.3,254.7-112.6,255-254.1
		C525.2,132.9,412.3,19.5,270.7,18.4z M371,193.6c-25.1,25.2-50.3,50.4-75.5,75.5c-1.4,1.4-2.6,2.9-4.3,4.7
		c15.9,17.7,31.6,35.2,47.4,52.8c7.8,8.7,15.7,17.4,23.5,26.1c6.8,7.7,6.8,17,0.4,22.8c-6.7,5.9-15.5,4.8-22.5-3
		c-22.2-24.6-44.4-49.3-66.5-74c-1-1.1-2-2.1-3.9-4.2c-9.1,9.4-17.9,18.7-26.9,27.8c-16.7,16.8-33.4,33.4-50.2,50.2
		c-8,8-16.6,9.2-23.2,3c-6.9-6.4-6.3-15.6,1.7-23.7c23.8-23.8,47.5-47.6,71.4-71.3c2.6-2.5,5.9-4.3,8.9-6.5
		c-23-25.6-44.3-49.4-65.6-73.2c-2.8-3.1-5.7-6-8.2-9.3c-5.3-6.9-4.6-15.8,1.6-21c6.2-5.3,14.9-4.8,21,1.8
		c10.3,11.1,20.2,22.5,30.3,33.7c13.5,15.1,27,30.1,40.8,45.5c20.7-20.7,41-41.1,61.3-61.4c5.9-5.9,11.7-11.8,17.6-17.5
		c7.5-7.2,16.5-7.5,22.7-1C378.6,177.6,378.1,186.4,371,193.6z"/>
</g>
</svg>
