<?xml version="1.0" encoding="utf-8"?>
<!-- Generator: Adobe Illustrator 22.0.1, SVG Export Plug-In . SVG Version: 6.00 Build 0)  -->
<svg version="1.1" id="Layer_1" xmlns="http://www.w3.org/2000/svg" xmlns:xlink="http://www.w3.org/1999/xlink" x="0px" y="0px"
	 viewBox="0 0 1080 1080" style="enable-background:new 0 0 1080 1080;" xml:space="preserve">
<style type="text/css">
	.st0{fill:#DDDBDC;}
	.st1{clip-path:url(#SVGID_2_);}
	.st2{fill:#F8A063;}
	.st3{opacity:0.57;fill:#F69054;}
	.st4{fill:#F89D63;}
	.st5{fill:#F69054;}
	.st6{opacity:0.53;fill:#F79459;}
	.st7{fill:#652D14;}
	.st8{fill:#FFFFFF;}
	.st9{fill:#EE8034;}
	.st10{fill:#454545;}
	.st11{fill:#231F20;}
	.st12{fill:#F5F6F7;}
	.st13{fill:#DDDEDF;}
	.st14{fill:#F7985D;}
	.st15{fill:#161516;}
</style>
<circle class="st0" cx="540" cy="566.5" r="431.6"/>
<g>
	<defs>
		<circle id="SVGID_1_" cx="540" cy="566.5" r="431.6"/>
	</defs>
	<clipPath id="SVGID_2_">
		<use xlink:href="#SVGID_1_"  style="overflow:visible;"/>
	</clipPath>
	<g class="st1">
		<g>
			<path class="st2" d="M672.3,486.8c-5.8,8.8-10.5,3-16-0.7c-28.9-19.2-48.2-14.3-64,16.5c-3.2,6.3-5.3,12.5-14.1,8.7
				c-7.1-3.1-13.1-6.2-12.5-16.2c1.9-28.7,18.8-45.8,48.6-47.4c11.3-0.6,22.6,0,33.9,0C656.3,460.8,664.3,473.8,672.3,486.8z"/>
			<rect x="662.5" y="470.3" class="st2" width="54.4" height="135.3"/>
			<path class="st2" d="M672.3,486.3c3.7,2.5,7.4,4.9,11.2,7.4c5.3,4.8,7.3,11.4,6.6,17.9c-1.9,17.1,8.8,22.9,22.3,26.8
				c-1.1,3.3-3,9.6-3.3,9.6c-25-6.6-30,13-38.6,28.6c-22.9,41.8-58,72.1-94.9,100.8c-5,3.9-8.5,9.8-12.8,14.8
				c-3.6,8-9.4,10.7-17.7,7.2c-9.2-6.3-10.2-16.3-11.7-26.1c0.8-7.8-8-13.7-4.4-22c5.3-2,10.7-3.9,13.4-1.7
				c-5.2-2-12.4-0.7-19.2,4.2c-12.7-3-17.4-12.1-18.2-24.1c2.5-5.5,6.9-8.2,12.7-8.9c9.6,0.2,19.2,2.4,28.8,0.8
				c-8.8-18.7-23-32.9-37.5-46.9c-1.7-13.1,0-26.4,3-38.8c7.4-29.8,2.6-57.1-11.7-83.5c37.6-28.3,66.3-66.2,104-98.4
				c14.3,32.1,24.6,64.8,43.8,93.1c-11,10.5-25.2,5.6-37.9,7.9c-25.2,4.4-32.9,14.6-30.9,46.8c14.5-23.3,30.7-37.6,58.1-33
				C651.7,471.2,659,484.2,672.3,486.3z"/>
			<path class="st2" d="M500.4,452.5c26.2,12.8,23.9,37.6,22.9,59.9c-1.1,22-6.8,43.7-10.5,65.6c-35.3,13.6-70.9,24.7-109.1,11.7
				c-19.1-10.6-14.7-32.1-21.7-48.2c-4-9.1,7-9.3,11.7-12.2C431.1,506.3,467.6,482,500.4,452.5z"/>
			<path class="st2" d="M403.7,589.7c36.4-3.9,72.7-7.8,109.1-11.7c14.7,3.3,30,5.2,29.4,26.4c-0.2,8.4,9.9,7,15.1,10.5
				c18.1,12.1,4.5,12.5-5.3,14.4c-10.1-7.1-22.7,1.1-33-5.2c-4,1.8-8,3.6-12,5.4c-16.2,19-36,20.1-57.7,11.6
				C433.2,624.7,411.6,613.3,403.7,589.7z"/>
			<path class="st3" d="M672.3,486.3c-5.8,8.8-10.5,3-16-0.7c-28.9-19.2-48.2-14.3-64,16.5c-3.2,6.3-5.3,12.5-14.1,8.7
				c-7.1-3.1-13.1-6.2-12.5-16.2c1.9-28.7,18.8-45.8,48.6-47.4c11.3-0.6,22.6,0,33.9,0C656.3,460.2,664.3,473.3,672.3,486.3z"/>
			<path class="st4" d="M449.2,641c19.7-1.4,39-5,57.7-11.6c5.9,7.5,11.7,15,17.6,22.5c2.3-2.2,4-1.9,4.9,1.2
				c4.1,5.1,12.4,7.3,11.4,16.1c-16.2,11.3-33.8,10.4-51.7,5.9C472.4,667.8,459.8,655.6,449.2,641z"/>
			<path class="st5" d="M702.2,532.2c-14.2,7.9-21,3.7-19.4-15.2c0.5-6.3,0.1-12.7,0.2-19.1c9.2,0.5,7.1-7.9,8.1-13.8
				c5.9-4.8,11.8-6.1,17.7,0C711.3,501,706.5,516.5,702.2,532.2z"/>
			<path class="st5" d="M722.2,475.7c-8.8,0-17.7,0-26.5,0c3.8-8.6,8.2-18.1,19.2-15.9C720.6,460.9,725.5,467.7,722.2,475.7z"/>
			<path class="st2" d="M519,624c11,1.6,23.4-5.6,33,5.2C541,627.3,528.6,634.3,519,624z"/>
			<path class="st2" d="M529.5,653.1c-1.6-0.7-3.2-1.1-4.9-1.2c7-11.1,15.7-4.7,32.3-2.2C542.3,651.5,535.9,652.3,529.5,653.1z"/>
			<path class="st6" d="M486.2,452.5l25.8,15.8v96c0,0-17.2,15.3-7.5,21.1s32.3,0,32.3,0V604v96.9L335.6,568.8L486.2,452.5z"/>
			<g>
				<path class="st7" d="M621.4,258.9c36.9-12.9,63.5-7.6,81.4,26.9c25.1,48.6,46.8,99.7,62.4,152c6.7,22.4-1.6,52.2-10.5,75.7
					c-23.9,62.9-52.3,124-77.8,186.2c-7.1,17.2-17.9,27.2-32.5,13.9c-19.6-17.8-45.2-2.8-64.4-16.8c-4.1-3-14.7-4.1-20.3-6.4
					c27.2-37.4,71.8-71,111.6-108.4c14.5,9,23.4,0.9,26.4-21.5c2.9-21.5,10.8-42.3,13.3-63.8c1-8-7-17.1-10.9-25.7
					c-15.6-1.9-18.4,11.3-20.7,20.3c-0.7,2.8-1.7,6.4-3.4,14c-36.6-40.1-56.8-85.5-75.6-135.5c-23.7,22.6-43.8,44.5-66.6,63.1
					c-42,34.2-85.2,66.9-128.7,99.1c-10.3,7.6-15.1,12.7-11.8,27.1c11.8,51.4,59.6,73.4,91.7,107.6c5.8,6.2,14,10.6,20.3,20.8
					c-39.3,17.2-88.2-0.9-114.3,49.2c-44.2-77.1-96.6-141.5-112-224.7c-2.3-12.4-1.5-27,2.8-38.8c21.9-59.6,43.2-119.6,69.7-177.2
					c8.7-18.8,30.2-36.3,49.9-44.4c42.4-17.5,86.7-31.9,131.6-41.4C573.3,201.9,602.5,221,621.4,258.9z"/>
			</g>
			<circle class="st8" cx="682.9" cy="578" r="14.8"/>
			<g>
				<path class="st9" d="M561.5,632.4h-54.4c-1.5,0-2.6-1.2-2.6-2.6s1.2-2.6,2.6-2.6h54.4c1.5,0,2.6,1.2,2.6,2.6
					S562.9,632.4,561.5,632.4z"/>
			</g>
			<g>
				<path class="st9" d="M545.9,643.7h-23.2c-0.6,0-1.1-0.8-1.1-1.7c0-1,0.5-1.7,1.1-1.7h23.2c0.6,0,1.1,0.8,1.1,1.7
					C547,642.9,546.5,643.7,545.9,643.7z"/>
			</g>
			<polygon class="st2" points="581.3,758.2 575,655.9 497.6,672.9 480.5,661.6 495.1,677.7 495.3,758.2 495.1,805.2 556.9,805.2 
				581.3,765.8 			"/>
			<path class="st10" d="M493.1,746.3l-19.5,20.2c0,0-94,22.8-95.8,43.9l17.7,147.4l10.6,50.9l275-8.8c0,0,28.4-173.8,16-186
				c0,0-37.3-31.6-95.8-43.9L580,746.3l-41,27.2L493.1,746.3z"/>
			<path class="st11" d="M611.4,796.2c-1.1-3.8-2.8-7.3-4.3-10.7l-9.4-20.7l-0.5,0.2l8.4,21.2c1.4,3.5,2.9,7,3.7,10.6
				c0.9,3.6,1,7.3-0.3,10.5c-0.6,1.6-1.5,3-2.7,4.1c-1.1,1-2.7,1.6-4.4,2.4c-0.8,0.4-1.7,0.8-2.6,1.4c-0.9,0.6-1.7,1.4-2.4,2.4
				c-1.3,2-1.6,4.5-1.4,6.6c0.2,2.2,0.8,4.3,1.6,6.1c0.8,1.8,1.7,3.5,2.4,5.2c0.7,1.6,1.3,3.2,1.5,4.8c0.3,1.6,0.1,3.2-0.3,4.8
				c-0.4,1.6-1.1,3.1-2,4.6c-0.9,1.5-1.9,2.8-3.1,4.1c-2.3,2.6-5.1,4.8-7.9,6.9c-5.9,4.2-11.8,8.6-17.6,13.1
				c-5.8,4.5-11.5,9.1-17.2,13.8c-5.6,4.6-11.2,9.4-16.6,14.3c-5.4-5-11-9.7-16.6-14.3c-5.7-4.7-11.4-9.2-17.2-13.8
				c-5.8-4.5-11.7-8.9-17.6-13.1c-2.8-2.1-5.6-4.3-7.9-6.9c-1.2-1.3-2.2-2.7-3.1-4.1c-0.9-1.4-1.6-3-2-4.6c-0.4-1.6-0.5-3.2-0.3-4.8
				c0.2-1.6,0.8-3.2,1.5-4.8c0.7-1.6,1.6-3.3,2.4-5.2c0.8-1.9,1.4-4,1.6-6.1c0.2-2.2-0.1-4.6-1.4-6.6c-0.6-1-1.5-1.8-2.4-2.4
				c-0.9-0.6-1.8-1-2.6-1.4c-1.7-0.8-3.2-1.3-4.4-2.4c-1.2-1-2.1-2.5-2.7-4.1c-1.2-3.2-1.2-7-0.3-10.5c0.8-3.6,2.4-7.1,3.7-10.6
				l8.4-21.2l-0.5-0.2l-9.4,20.7c-1.5,3.5-3.2,6.9-4.3,10.7c-0.5,1.9-0.9,3.9-1,6c-0.1,2.1,0.2,4.1,0.9,6.1c0.7,2,1.7,3.9,3.3,5.4
				c1.6,1.5,3.5,2.3,5,3c1.6,0.8,2.9,1.6,3.5,2.8c0.7,1.2,0.9,2.8,0.7,4.4c-0.2,1.6-0.7,3.3-1.5,4.8c-0.8,1.6-1.7,3.2-2.6,5
				c-1.9,3.4-3,8.3-1.9,12.5c0.4,2.1,1.2,4.2,2.3,6c1,1.8,2.2,3.5,3.4,5c2.5,3.1,5.4,5.6,8.3,8c5.8,4.6,11.6,8.9,17.6,13.2
				c6,4.2,11.9,8.4,18,12.4c6.1,4,12.2,8,18.5,11.7l0.1-0.2l0.1,0.2c6.3-3.7,12.4-7.7,18.5-11.7c6.1-4,12.1-8.2,18-12.4
				c6-4.3,11.8-8.6,17.6-13.2c2.9-2.4,5.8-5,8.3-8c1.3-1.5,2.4-3.2,3.4-5c1-1.8,1.8-3.8,2.3-6c1.1-4.3,0-9.1-1.9-12.5
				c-0.9-1.8-1.8-3.4-2.6-5c-0.8-1.6-1.3-3.2-1.5-4.8c-0.2-1.6,0-3.2,0.7-4.4c0.7-1.2,2-2,3.5-2.8c1.5-0.8,3.4-1.5,5-3
				c1.6-1.5,2.6-3.4,3.3-5.4c0.6-2,0.9-4.1,0.9-6.1C612.3,800.1,612,798.1,611.4,796.2z"/>
			<polygon class="st12" points="476.2,760 536.9,902.6 602.4,765.3 581.3,740.7 540.7,768.9 495.3,740.7 			"/>
			<path class="st13" d="M484.4,772.6l12.3,20.3c2.1,3.4,3.8,6.9,5.7,10.4l5.6,10.4l-2.2-0.2l31.6-41.7l1-1.3l1.1,1.3l34.2,41.7
				l-2.2,0.3l12.5-25.7c2.1-4.2,4.6-8.4,6.8-12.6l6.9-12.5l-5.6,13.1c-1.9,4.4-3.7,8.8-5.7,13.1l-12.5,25.7l-0.9,1.8l-1.3-1.6
				l-34.2-41.7l2.1,0l-31.6,41.7l-1.2,1.6l-1-1.8l-5.6-10.4c-1.8-3.5-3.9-6.9-5.5-10.5L484.4,772.6z"/>
			<polygon class="st13" points="537,886.8 538.3,778 539.7,886.8 			"/>
			<ellipse class="st13" cx="531.2" cy="822.3" rx="2.1" ry="5.1"/>
			<ellipse class="st13" cx="531.2" cy="843.3" rx="2.1" ry="5.1"/>
			<path class="st14" d="M495.1,678.2c0,0,44.1,13.4,80.8-7.5l1.1,56.8c0,0-41-32.2-81.9-33.9V678.2z"/>
			<path class="st11" d="M444.1,921.6c0,0,27.2-5.9,28.4-27.5s1.4,82.6,5.5,113.6l-6.1,0.5C471.9,1008.2,476.7,916.1,444.1,921.6z"
				/>
			<path class="st11" d="M652.4,914.2c0,0-27.6-3.5-30.7-24.6c-3.1-21.1,5.7,81.2,4.4,111.9h6.1
				C632.2,1001.5,619.5,911.6,652.4,914.2z"/>
		</g>
		<line class="st15" x1="536.9" y1="902.6" x2="541" y2="1001.5"/>
	</g>
</g>
</svg>
