<?xml version="1.0" encoding="utf-8"?>
<!-- Generator: Adobe Illustrator 22.0.1, SVG Export Plug-In . SVG Version: 6.00 Build 0)  -->
<svg version="1.1" id="Capa_1" xmlns="http://www.w3.org/2000/svg" xmlns:xlink="http://www.w3.org/1999/xlink" x="0px" y="0px"
	 viewBox="0 0 512 512" style="enable-background:new 0 0 512 512;" xml:space="preserve">
<style type="text/css">
	.st0{fill:#0D416B;}
</style>
<g>
	<g>
		<path class="st0" d="M124.1,238.2L40,325.7v147.7c0,4.2,3.4,7.5,7.5,7.5h102.1c4.2,0,7.5-3.4,7.5-7.5V246.8l-23.5-8.7L124.1,238.2
			L124.1,238.2z"/>
		<path class="st0" d="M332.1,306.8H230c-4.2,0-7.5,3.4-7.5,7.5v159c0,4.2,3.4,7.5,7.5,7.5h102.1c4.2,0,7.5-3.4,7.5-7.5v-159
			C339.6,310.2,336.2,306.8,332.1,306.8z"/>
		<path class="st0" d="M510.8,148.1c-3.9,2-8.3,3.1-12.7,3.1c-6.4,0-12.7-2.3-17.6-6.4L462,129.3l-67.1,73.2v270.8
			c0,4.2,3.4,7.5,7.5,7.5h102.1c4.2,0,7.5-3.4,7.5-7.5v-326C511.6,147.6,511.2,147.8,510.8,148.1z"/>
		<path class="st0" d="M290.2,271.6c5.7,2.1,12.2,0.5,16.3-4L461.4,98.7l36.2,30.3c1.8,1.5,4.3,1.8,6.3,0.7s3.2-3.3,3-5.6L499,36.3
			c-0.3-3.1-3-5.5-6.2-5.2L405.1,39c-2.3,0.2-4.2,1.8-4.9,4c-0.2,0.7-0.3,1.5-0.2,2.2c0.1,1.5,0.8,2.9,2,3.9l36.3,30.3L291.1,239.9
			l-167.9-61.8c-5.6-2.1-11.9-0.6-16.1,3.7L4.2,288.9c-5.8,6-5.6,15.5,0.4,21.3c2.9,2.8,6.7,4.2,10.4,4.2c4,0,7.9-1.6,10.9-4.6
			l96.1-100L290.2,271.6z"/>
	</g>
</g>
</svg>
