<?xml version="1.0" encoding="utf-8"?>
<!-- Generator: Adobe Illustrator 22.0.1, SVG Export Plug-In . SVG Version: 6.00 Build 0)  -->
<svg version="1.1" id="Capa_1" xmlns="http://www.w3.org/2000/svg" xmlns:xlink="http://www.w3.org/1999/xlink" x="0px" y="0px"
	 viewBox="0 0 512 512" style="enable-background:new 0 0 512 512;" xml:space="preserve">
<style type="text/css">
	.st0{fill:none;stroke:#0D416B;stroke-width:40;stroke-miterlimit:10;}
	.st1{fill:#0D416B;}
</style>
<g>
	<circle class="st0" cx="103.6" cy="167.2" r="42"/>
	<circle class="st0" cx="256" cy="78.8" r="42"/>
	<circle class="st0" cx="408.4" cy="167.1" r="42"/>
	<circle class="st0" cx="408.4" cy="343.3" r="42"/>
	<circle class="st0" cx="256" cy="429.5" r="42"/>
	<circle class="st0" cx="103.6" cy="343.3" r="42"/>
	<circle class="st0" cx="256" cy="255.3" r="42"/>
	<rect x="79.7" y="207.2" class="st1" width="37.6" height="94.1"/>
	<rect x="237.2" y="114.7" class="st1" width="37.6" height="94.1"/>
	
		<rect x="153.4" y="340.5" transform="matrix(0.5634 -0.8262 0.8262 0.5634 -244.9807 311.4467)" class="st1" width="37.6" height="94.1"/>
	
		<rect x="313.4" y="251.3" transform="matrix(0.5634 -0.8262 0.8262 0.5634 -101.4263 404.701)" class="st1" width="37.6" height="94.1"/>
	
		<rect x="125.1" y="279.5" transform="matrix(0.8262 -0.5634 0.5634 0.8262 -138.148 148.8259)" class="st1" width="94.1" height="37.6"/>
	
		<rect x="315.8" y="73.7" transform="matrix(0.5634 -0.8262 0.8262 0.5634 46.3045 329.1535)" class="st1" width="37.6" height="94.1"/>
	
		<rect x="125.1" y="102" transform="matrix(0.8262 -0.5634 0.5634 0.8262 -38.1328 117.9914)" class="st1" width="94.1" height="37.6"/>
	<rect x="392.3" y="208.2" class="st1" width="37.6" height="94.1"/>
	
		<rect x="284" y="374.2" transform="matrix(0.8348 -0.5506 0.5506 0.8348 -161.6904 247.228)" class="st1" width="94.1" height="37.6"/>
</g>
</svg>
