<?xml version="1.0" encoding="utf-8"?>
<!-- Generator: Adobe Illustrator 22.0.1, SVG Export Plug-In . SVG Version: 6.00 Build 0)  -->
<svg version="1.1" id="Capa_1" xmlns="http://www.w3.org/2000/svg" xmlns:xlink="http://www.w3.org/1999/xlink" x="0px" y="0px"
	 viewBox="0 0 512 512" style="enable-background:new 0 0 512 512;" xml:space="preserve">
<style type="text/css">
	.st0{fill:#0D416B;}
</style>
<g>
	<path class="st0" d="M497.1,306.3c-9.3-12-22.3-18.1-39-18.1c-8.8,0-17.2,1.5-25.4,4.6c-8.2,3.1-14.7,6.5-19.7,10.2
		c-5,3.8-10.4,7.2-16.2,10.2c-5.8,3.1-11,4.6-15.4,4.6c-9.2,0-18.3-4.7-27.2-14.1c-7.1-7.5-10.7-19.5-10.7-35.8
		c0-19.4,2.4-44.4,7.3-74.9c0.2-0.6,0.6-2.8,1.1-6.6s1-7.2,1.5-10.4s0.9-4.9,1.1-5.4V170c-9.6,0.4-26.2,2.1-49.9,5.2
		c-23.7,3.1-42,4.6-55.1,4.6c-12.4,0-22.9-2.7-31.5-8.1c-8.6-5.4-12.8-13.9-12.8-25.5c0-7.5,1.8-14.8,5.4-21.7
		c3.6-6.9,7.4-12.7,11.6-17.3c4.2-4.6,8.1-10.6,11.6-18c3.6-7.4,5.4-15.3,5.4-23.7c0-16.1-5.5-28.7-16.5-37.8s-24.7-13.6-41-13.6
		c-17.3,0-32,4.6-44,13.9s-18,22.3-18,39c0,8.8,1.5,17.2,4.6,25.4s6.5,14.7,10.2,19.7c3.8,5,7.2,10.4,10.2,16.2
		c3.1,5.8,4.6,11,4.6,15.4c0,9.2-4.7,18.3-14.1,27.2c-7.5,7.1-19.5,10.7-35.8,10.7c-19.4,0-44.4-2.4-74.9-7.3
		c-0.6-0.2-2.8-0.6-6.6-1.1s-7.2-1-10.4-1.5s-4.9-0.9-5.4-1.1V484c0,0.2,0.2,0.3,0.6,0.3c0.4,0.2,0.7,0.3,0.9,0.3l4,0.6
		c1.8,0.4,4.6,0.8,8.4,1.2c3.8,0.4,6.6,0.8,8.4,1.2c30.6,4.9,55.6,7.3,74.9,7.3c16.3,0,28.2-3.6,35.8-10.7c9.4-9,14.1-18,14.1-27.2
		c0-4.5-1.5-9.6-4.6-15.5c-3.1-5.8-6.5-11.2-10.2-16.2c-3.8-5-7.2-11.6-10.2-19.7c-3.1-8.2-4.6-16.6-4.6-25.4c0-16.7,6-29.7,18-39
		s26.6-13.9,43.7-13.9c16.5,0,30.3,4.5,41.3,13.6s16.5,21.7,16.5,37.8c0,8.4-1.8,16.3-5.4,23.7c-3.6,7.4-7.4,13.5-11.6,18.1
		c-4.2,4.6-8.1,10.3-11.6,17.3c-3.6,6.9-5.4,14.2-5.4,21.7c0,11.6,4.3,20.1,12.8,25.5c8.6,5.4,19.1,8.1,31.5,8.1
		c9.4,0,19.4-0.5,30-1.5c10.6-1,22.4-2.4,35.3-4.1s22.9-2.9,29.8-3.5c2.2-0.2,5.6-0.3,10.1-0.3v-1.5c0.2-8-1.3-19.7-4.6-35.2
		c-3.3-15.5-4.9-27.2-4.9-35.2c0-25.3,11.2-37.9,33.6-37.9c7.5,0,14.8,1.8,21.7,5.4c6.9,3.6,12.7,7.5,17.3,11.6
		c4.6,4.2,10.6,8.1,18.1,11.6c7.4,3.6,15.3,5.4,23.7,5.4c16.1,0,28.7-5.5,37.8-16.5c9.1-11,13.6-24.8,13.6-41.3
		C511,332.9,506.4,318.3,497.1,306.3z"/>
</g>
</svg>
