<?xml version="1.0" encoding="utf-8"?>
<!-- Generator: Adobe Illustrator 22.0.1, SVG Export Plug-In . SVG Version: 6.00 Build 0)  -->
<svg version="1.1" id="Capa_1" xmlns="http://www.w3.org/2000/svg" xmlns:xlink="http://www.w3.org/1999/xlink" x="0px" y="0px"
	 viewBox="0 0 512 512" style="enable-background:new 0 0 512 512;" xml:space="preserve">
<style type="text/css">
	.st0{fill:#0D416B;}
</style>
<g>
	<path class="st0" d="M404.8,253.2c0,66.3,0,132.7,0,199c0,16.1-10.4,26.6-26.3,26.6c-75.3,0-150.7,0-226,0
		c-16.2,0-26.7-10.4-26.7-26.9c0-133,0-266,0-399c0-15.8,11.9-27.7,27.9-27.7c74.5,0,149,0.1,223.5-0.1c13,0,28,10.3,27.8,28.1
		C404.5,119.9,404.8,186.5,404.8,253.2z"/>
	<path class="st0" d="M72.9,330.7c-4,0-7.6,0-11.3,0c-3.6,0-5.5-1.9-5.7-5.5c-0.1-1.8,0-3.7,0-5.5c-0.1-3.9,1.8-5.8,5.8-5.8
		c3.6,0.1,7.3,0,10.8,0c2.2-8.4,2.7-8.7,11-8.7c8,0,15.9,0,24.5,0c0,10.7,0.1,21-0.2,31.2c0,1.2-2.5,3.2-3.9,3.3
		c-8.3,0.3-16.7,0.3-25,0.1C73.3,339.8,73.2,335.6,72.9,330.7z"/>
	<path class="st0" d="M72.9,401.4c-4,0-7.6,0-11.3,0c-3.6,0-5.5-1.9-5.7-5.5c-0.1-1.8,0-3.7,0-5.5c-0.1-3.9,1.8-5.8,5.8-5.8
		c3.6,0.1,7.3,0,10.8,0c2.2-8.4,2.7-8.7,11-8.7c8,0,15.9,0,24.5,0c0,10.7,0.1,21-0.2,31.2c0,1.2-2.5,3.2-3.9,3.3
		c-8.3,0.3-16.7,0.3-25,0.1C73.3,410.4,73.2,406.2,72.9,401.4z"/>
	<path class="st0" d="M72.9,260.1c-4,0-7.6,0-11.3,0c-3.6,0-5.5-1.9-5.7-5.5c-0.1-1.8,0-3.7,0-5.5c-0.1-3.9,1.8-5.8,5.8-5.8
		c3.6,0.1,7.3,0,10.8,0c2.2-8.4,2.7-8.7,11-8.7c8,0,15.9,0,24.5,0c0,10.7,0.1,21-0.2,31.2c0,1.2-2.5,3.2-3.9,3.3
		c-8.3,0.3-16.7,0.3-25,0.1C73.3,269.2,73.2,264.9,72.9,260.1z"/>
	<path class="st0" d="M72.9,189.5c-4,0-7.6,0-11.3,0c-3.6,0-5.5-1.9-5.7-5.5c-0.1-1.8,0-3.7,0-5.5c-0.1-3.9,1.8-5.8,5.8-5.8
		c3.6,0.1,7.3,0,10.8,0c2.2-8.4,2.7-8.7,11-8.7c8,0,15.9,0,24.5,0c0,10.7,0.1,21-0.2,31.2c0,1.2-2.5,3.2-3.9,3.3
		c-8.3,0.3-16.7,0.3-25,0.1C73.3,198.6,73.2,194.3,72.9,189.5z"/>
	<path class="st0" d="M72.9,118.9c-4,0-7.6,0-11.3,0c-3.6,0-5.5-1.9-5.7-5.5c-0.1-1.8,0-3.7,0-5.5c-0.1-3.9,1.8-5.8,5.8-5.8
		c3.6,0.1,7.3,0,10.8,0c2.2-8.4,2.7-8.7,11-8.7c8,0,15.9,0,24.5,0c0,10.7,0.1,21-0.2,31.2c0,1.2-2.5,3.2-3.9,3.3
		c-8.3,0.3-16.7,0.3-25,0.1C73.3,128,73.2,123.7,72.9,118.9z"/>
	<path class="st0" d="M458,330.7c4,0,7.6,0,11.3,0c3.6,0,5.5-1.9,5.7-5.5c0.1-1.8,0-3.7,0-5.5c0.1-3.9-1.8-5.8-5.8-5.8
		c-3.6,0.1-7.3,0-10.8,0c-2.2-8.4-2.7-8.7-11-8.7c-8,0-15.9,0-24.5,0c0,10.7-0.1,21,0.2,31.2c0,1.2,2.5,3.2,3.9,3.3
		c8.3,0.3,16.7,0.3,25,0.1C457.5,339.8,457.6,335.6,458,330.7z"/>
	<path class="st0" d="M458,260.1c4,0,7.6,0,11.3,0c3.6,0,5.5-1.9,5.7-5.5c0.1-1.8,0-3.7,0-5.5c0.1-3.9-1.8-5.8-5.8-5.8
		c-3.6,0.1-7.3,0-10.8,0c-2.2-8.4-2.7-8.7-11-8.7c-8,0-15.9,0-24.5,0c0,10.7-0.1,21,0.2,31.2c0,1.2,2.5,3.2,3.9,3.3
		c8.3,0.3,16.7,0.3,25,0.1C457.5,269.2,457.6,264.9,458,260.1z"/>
	<path class="st0" d="M458,401.4c4,0,7.6,0,11.3,0c3.6,0,5.5-1.9,5.7-5.5c0.1-1.8,0-3.7,0-5.5c0.1-3.9-1.8-5.8-5.8-5.8
		c-3.6,0.1-7.3,0-10.8,0c-2.2-8.4-2.7-8.7-11-8.7c-8,0-15.9,0-24.5,0c0,10.7-0.1,21,0.2,31.2c0,1.2,2.5,3.2,3.9,3.3
		c8.3,0.3,16.7,0.3,25,0.1C457.5,410.4,457.6,406.2,458,401.4z"/>
	<path class="st0" d="M458,189.5c4,0,7.6,0,11.3,0c3.6,0,5.5-1.9,5.7-5.5c0.1-1.8,0-3.7,0-5.5c0.1-3.9-1.8-5.8-5.8-5.8
		c-3.6,0.1-7.3,0-10.8,0c-2.2-8.4-2.7-8.7-11-8.7c-8,0-15.9,0-24.5,0c0,10.7-0.1,21,0.2,31.2c0,1.2,2.5,3.2,3.9,3.3
		c8.3,0.3,16.7,0.3,25,0.1C457.5,198.6,457.6,194.3,458,189.5z"/>
	<path class="st0" d="M458,118.9c4,0,7.6,0,11.3,0c3.6,0,5.5-1.9,5.7-5.5c0.1-1.8,0-3.7,0-5.5c0.1-3.9-1.8-5.8-5.8-5.8
		c-3.6,0.1-7.3,0-10.8,0c-2.2-8.4-2.7-8.7-11-8.7c-8,0-15.9,0-24.5,0c0,10.7-0.1,21,0.2,31.2c0,1.2,2.5,3.2,3.9,3.3
		c8.3,0.3,16.7,0.3,25,0.1C457.5,128,457.6,123.7,458,118.9z"/>
</g>
</svg>
