<?xml version="1.0" encoding="utf-8"?>
<!-- Generator: Adobe Illustrator 22.0.1, SVG Export Plug-In . SVG Version: 6.00 Build 0)  -->
<svg version="1.1" id="Capa_1" xmlns="http://www.w3.org/2000/svg" xmlns:xlink="http://www.w3.org/1999/xlink" x="0px" y="0px"
	 viewBox="0 0 512 512" style="enable-background:new 0 0 512 512;" xml:space="preserve">
<style type="text/css">
	.st0{fill:#0D416B;}
</style>
<g>
	<path class="st0" d="M359.9,481c-10.8-2.6-22-4-32.2-8.1c-38.9-15.9-63.1-44.7-69.7-86.3c-7.2-45.4,8.8-82.5,45.7-109.8
		c24.1-17.9,51.8-24.3,81.5-19.5c40,6.4,68.5,28.5,86,64.8c5,10.4,7.8,21.4,9.2,32.8c0.2,1.6,0.6,3.1,0.9,4.7c0,5.9,0,11.7,0,17.6
		c-0.6,3.1-1.1,6.3-1.7,9.4c-7.7,41.4-31.1,70.4-69.9,86.2c-10.1,4.1-21.4,5.5-32.2,8.1C371.6,481,365.8,481,359.9,481z
		 M303.9,405.1c33.8-33.8,67.6-67.7,101.4-101.5c-27.9-17.2-66.4-12.1-90.2,12.3C291.4,340.5,286.7,378.8,303.9,405.1z M331.6,433.1
		c30.8,18.5,70.4,11.8,94.3-16.1c22.8-26.7,22-63.8,7.1-85.3C399.3,365.3,365.5,399.1,331.6,433.1z"/>
	<path class="st0" d="M361.1,81.8c-9.7,10.3-21.5,16.8-34,22.1c-22.6,9.5-46.3,14.5-70.5,17.4c-32.3,3.9-64.6,4.2-97,1.7
		c-32.4-2.6-64.2-8-93.9-22.1c-10-4.7-19.2-10.5-27-18.8c6.8-10.2,16.1-17.3,26.6-23.2c20.3-11.4,42.3-17.7,65-21.8
		c32-5.9,64.3-7.4,96.8-5.2c30.6,2.1,60.8,6.9,89.5,18.5c14.2,5.7,27.6,12.9,38.4,24.2C357.1,76.7,359,79.3,361.1,81.8z"/>
	<path class="st0" d="M31,124.1c5.8,3.2,10.8,6.2,16,8.8c21.5,10.7,44.4,17.4,67.9,21.7c41.8,7.7,83.8,8.8,126.1,5.6
		c25.8-1.9,51.2-6,76-13.4c16-4.8,31.5-10.9,45.9-19.6c1.5-0.9,3-1.7,4.6-2.6c0.2-0.1,0.5,0,1.1,0c0,12.8,0.4,25.5-0.3,38.2
		c-0.2,3.8-3,7.9-5.7,11.1c-8.6,10.4-20.2,16.8-32.2,22.3c-24.3,10.9-50.1,16-76.3,19.1c-24.7,2.9-49.4,3.4-74.2,2.5
		c-33.5-1.2-66.6-5.3-98.3-16.7c-14.8-5.3-28.9-12.2-40.6-23c-6.7-6.1-10.7-13.1-10.1-22.7C31.5,145.4,31,135.1,31,124.1z"/>
	<path class="st0" d="M31,219.2c13.8,6.1,27.1,12.6,40.8,17.8c22,8.3,45.1,12.6,68.4,15.3c40,4.7,80.1,4.7,120.2-0.1
		c4.9-0.6,9.7-1.3,15.5-2.1c-6,5.7-11.3,10.5-16.2,15.6c-11.8,12.2-21.1,26.2-27.9,41.8c-1.2,2.8-2.7,3.8-5.8,4
		c-30.7,1.7-61.2,0.6-91.6-3.7c-25.6-3.6-50.6-9.7-73.7-21.9c-8.8-4.7-17.1-10.3-23.7-17.9c-4-4.6-6.2-9.7-6-16
		C31.2,240.8,31,229.7,31,219.2z"/>
	<path class="st0" d="M31,311.7c6,3.3,11.1,6.5,16.5,9.1c27.9,13.7,57.7,20.7,88.3,24.7c26.3,3.5,52.8,4.5,79.3,3.7
		c1.4,0,2.9,0,4.8,0c-2.3,18.9-1.3,37.3,3.6,56.6c-10.2,0-19.7,0.1-29.2,0C162,405.3,130,401.7,99,392
		c-18.4-5.7-36.1-13.1-50.7-26.2c-11.4-10.3-18.2-22.7-17.5-38.6C31.1,322.4,31,317.4,31,311.7z"/>
</g>
</svg>
